<?xml version="1.0" encoding="UTF-8"?><svg xmlns="http://www.w3.org/2000/svg" viewBox="0 0 122.59 230.95"><defs><style>.d,.e,.f{fill:#fff;}.e{stroke-width:2px;}.e,.f{stroke:#000;stroke-miterlimit:10;}.f{stroke-width:3.69px;}</style></defs><g id="a"/><g id="b"><g id="c"><g><path class="f" d="M18.95,12.19c.62-.31,37.71-6,44.63-5.93,6.93,.08,16.78,5.28,16.78,5.28l-21.7,11.26L18.95,12.19Z"/><path class="e" d="M1.86,20.53C4.67,9.98,18.49-.4,26.8,2.1c8.31,2.5,22.16,12.09,32.32,9.45,10.16-2.64,28.52-7.28,33.7-7.95,5.19-.67,26.32,7.08,28.16,17.27,1.14,6.27-2.27,24.73-7.43,39.51,0,0-7.42,70.01-9.99,86.9-3.17,20.79-14.67,82.67-18,82.67s-.42-65.33-5.21-79.33-9.97-32.67-19.05-34c-9.08-1.33-14.41,31.33-14.41,49.33s-7.71,58.83-12.37,57.5c-4.67-1.33-9.04-82.17-12-103.5-2.96-21.33-16.1-63.83-16.11-63.85C1.97,41.82,.59,25.31,1.86,20.53Z"/><g><path class="d" d="M46.17,79.37c4.05-.17,9.36-.08,16.64,.56,3.9,.34,8.73,1.25,13.78,1.99"/><path d="M46.17,79.37c2.54-.31,5.1-.39,7.66-.39,2.56,0,5.11,.14,7.66,.33,2.55,.19,5.1,.56,7.61,1.04l3.76,.74c1.25,.28,2.5,.53,3.74,.83-1.28-.07-2.55-.22-3.82-.34l-3.8-.46c-2.53-.3-5.03-.64-7.57-.81-2.53-.22-5.07-.39-7.6-.57-2.54-.17-5.08-.27-7.63-.38Z"/></g><path d="M96.78,82.26c2.78-.76,5.57-1.99,7.45-4.14,1.86-2.18,3.29-4.72,4.51-7.33,2.44-5.24,4.25-10.77,5.8-16.34,1.56-5.58,2.87-11.23,3.85-16.92,.48-2.85,.9-5.7,1.17-8.55,.13-1.42,.23-2.85,.25-4.25,0-1.39-.03-2.8-.33-3.98-.6-2.37-2.41-4.5-4.48-6.26-2.09-1.78-4.48-3.28-6.98-4.57-2.5-1.29-5.13-2.38-7.81-3.24-1.34-.43-2.69-.8-4.03-1.06-.67-.13-1.34-.24-1.96-.28-.32-.03-.61-.03-.88-.02-.13,.02-.22,.01-.38,.04l-.51,.08c-2.74,.47-5.6,1.14-8.42,1.78-2.82,.66-5.65,1.34-8.47,2.04l-8.46,2.14-4.22,1.09-2.11,.55-1.05,.28c-.36,.09-.8,.16-1.19,.24-3.26,.6-6.46,.18-9.42-.55-2.98-.74-5.79-1.82-8.51-2.98-2.73-1.16-5.37-2.44-7.99-3.64-1.31-.6-2.62-1.2-3.92-1.7-.65-.27-1.3-.5-1.94-.71l-.48-.16-.43-.08-.86-.18c-2.41-.22-5.06,.52-7.49,1.68-2.45,1.18-4.74,2.78-6.78,4.64-2.05,1.86-3.86,3.99-5.27,6.33-.34,.59-.72,1.17-.98,1.79-.29,.61-.6,1.22-.78,1.86l-.33,.95c-.1,.32-.14,.6-.22,.91-.1,.65-.18,1.32-.22,2.01-.29,5.61,.35,11.42,1.16,17.11,.85,5.7,2.09,11.36,3.8,16.87,.85,2.75,1.83,5.47,3.03,8.08,1.19,2.61,2.6,5.14,4.37,7.38l.67,.84,.73,.78c.47,.54,1.03,.98,1.56,1.45,.26,.25,.57,.42,.86,.63,.3,.19,.57,.43,.89,.58,.63,.33,1.25,.67,1.93,.94,2.66,1.14,5.38,2.23,8.28,2.58-2.92-.16-5.75-1.09-8.49-2.07-.69-.23-1.36-.56-2.04-.88-.35-.14-.64-.38-.96-.57-.31-.21-.65-.37-.93-.62-.58-.47-1.19-.9-1.71-1.44l-.8-.78-.74-.83c-1.95-2.24-3.51-4.78-4.87-7.4-1.35-2.62-2.49-5.35-3.49-8.12-1.96-5.55-3.41-11.26-4.48-17.04-.54-2.89-.95-5.81-1.26-8.74C.12,29.52-.07,26.57,.02,23.53c.03-.76,.09-1.54,.2-2.33,.08-.4,.15-.85,.26-1.22l.36-1.13c.21-.77,.54-1.47,.86-2.18,.29-.73,.69-1.39,1.06-2.07,1.55-2.68,3.52-5.05,5.75-7.14,2.23-2.08,4.72-3.9,7.5-5.29C18.79,.82,21.91-.21,25.35,.04l1.29,.24,.64,.13,.56,.18c.74,.24,1.47,.49,2.16,.78,1.41,.55,2.76,1.15,4.1,1.76,2.67,1.21,5.29,2.45,7.92,3.56,2.63,1.11,5.29,2.1,7.97,2.75,2.67,.65,5.39,.94,7.87,.47,.32-.06,.6-.09,.95-.18l1.06-.27,2.12-.54,4.24-1.07,8.49-2.1c2.84-.69,5.68-1.36,8.53-2.01,2.87-.64,5.68-1.29,8.69-1.76l.57-.08c.19-.03,.47-.04,.7-.06,.46,0,.9,0,1.3,.05,.83,.07,1.6,.21,2.36,.37,1.51,.32,2.97,.75,4.39,1.23,2.85,.97,5.61,2.15,8.26,3.57,2.65,1.42,5.21,3.05,7.52,5.11,1.15,1.03,2.23,2.17,3.16,3.47,.92,1.3,1.7,2.79,2.08,4.45,.36,1.66,.33,3.2,.3,4.71-.06,1.51-.2,2.99-.37,4.46-.35,2.94-.85,5.84-1.45,8.72-1.2,5.75-2.7,11.42-4.49,16.99-1.83,5.56-3.93,11.05-6.65,16.26-1.37,2.59-2.93,5.12-4.98,7.27-2.14,2.15-5.02,3.17-7.85,3.76Z"/></g></g></g></svg>