<?xml version="1.0" encoding="UTF-8"?><svg xmlns="http://www.w3.org/2000/svg" viewBox="0 0 87.35 239.89"><defs><style>.d{stroke-width:2px;}.d,.e{fill:#fff;stroke:#000;stroke-miterlimit:10;}.e{stroke-width:3.69px;}</style></defs><g id="a"/><g id="b"><g id="c"><g><path class="e" d="M18.82,12.06S30.21,.98,40.67,1.9c10.47,.92,27.7,10.16,27.7,10.16l-24.72,4.92-24.84-4.92Z"/><path class="d" d="M19.36,4.13c6.46,0,19.39,7.39,25.16,5.54,5.77-1.85,20.78-4.16,27.47-3.34,6.69,.82,15.77,6.95,13.31,22.77-1.82,11.72-1.62,27.13-3.9,38.34h0c1.22-4.09-5.9,24.03-13.93,51.04-6.51,21.89-19.61,120.02-24.56,120.4-8.4,.65-15.25-109.38-22.69-138.18-3.65-14.14-5.56-29.7-8.14-42.1-1.03-3.9-2.15-8.06-3.26-12.23h0c-.08-.22-.14-.45-.18-.67C5.66,34.49,2.76,23.48,1.81,18.45-.26,7.37,12.89,4.13,19.36,4.13Z"/><path d="M48.6,99.42c2.8-.83,5.5-1.91,8.07-3.24,2.59-1.3,5.03-2.87,7.31-4.63,4.57-3.52,8.54-7.79,11.72-12.55,.81-1.18,1.56-2.41,2.15-3.64,.35-.59,.53-1.29,.8-1.93,.27-.64,.45-1.33,.65-2.01,.78-2.72,1.28-5.54,1.62-8.4,.73-5.71,1.01-11.51,1.35-17.32,.32-5.8,.68-11.71,1.51-17.51,.4-2.76,.36-5.54-.12-8.18-.51-2.62-1.51-5.14-3.19-7.1-.81-1-1.8-1.84-2.85-2.59-1.08-.69-2.24-1.29-3.46-1.68-1.24-.39-2.46-.58-3.83-.64-1.37-.06-2.78-.03-4.19,.04-5.67,.32-11.42,1.16-16.99,2.35-1.38,.31-2.77,.63-4.06,1.04-1.91,.56-3.58,.37-5.16,.16-3.13-.51-5.95-1.48-8.72-2.42-2.77-.95-5.49-1.95-8.17-2.66-1.34-.34-2.63-.58-3.85-.59-1.33,0-2.7,.17-4.05,.38-2.68,.48-5.35,1.3-7.54,2.71-1.12,.67-2.05,1.53-2.8,2.49l-.52,.75c-.17,.25-.25,.54-.39,.81-.31,.52-.37,1.13-.54,1.71-.08,.29-.05,.61-.09,.91,0,.31-.08,.61-.04,.92,.09,.65,.09,1.23,.23,1.93,.26,1.4,.57,2.8,.89,4.21,.62,2.82,1.3,5.65,1.99,8.47,2.78,11.29,5.69,22.58,8.4,33.92,.66,2.84,1.31,5.68,1.89,8.56,.14,.72,.3,1.43,.4,2.17l.18,1.1,.18,1.02c.31,1.36,.83,2.7,1.42,4,1.2,2.61,2.72,5.09,4.42,7.43,1.68,2.36,3.58,4.57,5.69,6.58-4.47-3.75-8.24-8.36-10.99-13.58-.68-1.31-1.29-2.68-1.69-4.14l-.26-1.12-.22-1.05c-.14-.7-.33-1.4-.5-2.1-.7-2.81-1.49-5.61-2.28-8.41-3.12-11.21-6.41-22.39-9.44-33.66-.76-2.82-1.51-5.64-2.22-8.49-.36-1.42-.68-2.86-.98-4.32-.16-.72-.21-1.6-.31-2.4-.04-.41,.02-.84,.03-1.25,.04-.42,.01-.84,.11-1.26,.21-.83,.33-1.69,.73-2.46,.18-.39,.33-.8,.55-1.16l.71-1.06c1.02-1.35,2.26-2.49,3.63-3.34,2.71-1.78,5.72-2.73,8.74-3.32,1.52-.27,3.05-.48,4.64-.48,1.7,0,3.29,.32,4.77,.68,2.95,.77,5.71,1.78,8.45,2.7,2.73,.92,5.47,1.81,8.1,2.23,1.29,.18,2.59,.24,3.5-.05,1.49-.47,2.94-.81,4.4-1.14,5.82-1.2,11.64-2.03,17.61-2.34,1.5-.06,3-.09,4.54-.02,1.54,.07,3.21,.33,4.75,.83,1.55,.5,3,1.25,4.36,2.14,1.33,.94,2.55,2.04,3.56,3.31,2.08,2.52,3.25,5.63,3.79,8.7,.51,3.09,.49,6.22,.01,9.21-.88,5.73-1.38,11.45-1.85,17.27-.49,5.8-.87,11.65-1.83,17.47-.46,2.91-1.07,5.82-1.99,8.68-.24,.71-.45,1.43-.77,2.12-.32,.69-.53,1.41-.94,2.07-.73,1.37-1.53,2.61-2.43,3.79-3.53,4.76-7.8,8.93-12.62,12.3-2.41,1.68-4.96,3.16-7.65,4.35-2.68,1.18-5.47,2.09-8.31,2.74Z"/></g></g></g></svg>