<?xml version="1.0" encoding="UTF-8"?><svg xmlns="http://www.w3.org/2000/svg" viewBox="0 0 98.34 315.87"><defs><style>.d{fill:#fff;stroke:#000;stroke-miterlimit:10;stroke-width:2px;}</style></defs><g id="a"/><g id="b"><g id="c"><g><path class="d" d="M3.91,250.4h0c.02-.06,.03-.12,.05-.17,4.67-16.93,13.04-35.31,18.03-60.72C29.42,151.59,40.03,.15,48.43,1c4.94,.5,18.05,129.68,24.56,158.5,6.97,30.84,20.37,90.08,23.01,101.75,7.84,24.13-34.75,53.64-51.18,52.78-16.84-.89-43.43-28.23-43.43-45.13,0-5.27,.69-11.83,2.53-18.49h0Z"/><path d="M59.14,219.68c5.26,1.85,10.18,4.71,14.54,8.24,4.35,3.55,8.23,7.68,11.67,12.13,3.41,4.48,6.34,9.31,8.92,14.32,.66,1.24,1.26,2.52,1.86,3.79,.31,.62,.58,1.31,.83,2.01,.27,.69,.54,1.39,.68,2.12,.75,2.87,.9,5.92,.42,8.83-.45,2.92-1.38,5.71-2.58,8.35-1.2,2.65-2.76,5.08-4.41,7.43-3.36,4.66-7.35,8.76-11.65,12.47-4.33,3.68-8.99,6.96-13.95,9.75-4.97,2.77-10.19,5.2-16.02,6.36-1.45,.29-2.98,.41-4.56,.38-1.54-.09-3.05-.32-4.49-.71-2.89-.76-5.58-1.94-8.12-3.31-5.07-2.78-9.61-6.3-13.75-10.19-4.13-3.91-7.85-8.24-11.06-12.96-3.17-4.72-5.94-9.87-7.09-15.68-.17-.71-.21-1.47-.32-2.2-.05-.74-.08-1.52-.07-2.23,.02-1.42,.1-2.84,.21-4.26,.23-2.83,.63-5.64,1.2-8.41,1.13-5.54,2.89-10.98,5.46-16.03,2.59-5.03,6-9.68,10.27-13.38,2.13-1.85,4.46-3.46,6.95-4.76,2.49-1.29,5.12-2.29,7.81-3.01-5.28,1.79-10.13,4.69-14.1,8.5-3.98,3.81-7.05,8.46-9.3,13.44-2.29,4.98-3.81,10.29-4.71,15.69-.44,2.7-.77,5.42-.92,8.15-.07,1.36-.11,2.73-.1,4.09,.01,.68,.06,1.29,.11,1.94,.11,.64,.16,1.28,.33,1.92,.56,2.56,1.55,5.06,2.75,7.46,1.2,2.41,2.62,4.72,4.18,6.95,3.13,4.44,6.77,8.55,10.78,12.24,4.01,3.67,8.35,7.03,13.07,9.57,2.36,1.26,4.81,2.31,7.32,2.95,1.25,.34,2.51,.51,3.74,.58,1.21,.01,2.47-.08,3.75-.34,5.12-.98,10.18-3.24,14.92-5.87,4.77-2.64,9.25-5.81,13.46-9.27,4.18-3.5,8.06-7.37,11.29-11.71,3.2-4.33,5.81-9.16,6.76-14.33,.49-2.58,.42-5.22-.16-7.74-.1-.64-.32-1.25-.54-1.87-.21-.61-.41-1.23-.72-1.86-.56-1.26-1.08-2.53-1.69-3.77-2.34-4.98-5.05-9.8-8.21-14.32-3.15-4.52-6.74-8.75-10.85-12.45-2.09-1.8-4.25-3.55-6.59-5.02-2.29-1.57-4.78-2.81-7.32-3.96Z"/></g></g></g></svg>