<?xml version="1.0" encoding="UTF-8"?><svg xmlns="http://www.w3.org/2000/svg" viewBox="0 0 108.58 361.69"><defs><style>.d{fill:#fff;stroke:#000;stroke-miterlimit:10;stroke-width:2px;}</style></defs><g id="a"/><g id="b"><g id="c"><g><path class="d" d="M74.31,197.22c-1.46-15-5.38-48.17-4.38-83.5,.58-20.52,4.67-116-.67-112.64-6.6,4.16-25.53,64.71-29.33,82.3-5.33,24.67-8.67,88.33-11.17,99.83s-13.27,63.3-13.27,63.3h0c-6.37,13.8-9.86,29.62-11.89,41.78-4.56,27.24-.87,46.17,3.75,53.09,4.62,6.93,11.08,18.47,39.71,18.47s47.56-19.85,53.1-29.55c5.54-9.7,6.93-21.24,6.93-28.16,0-4.47-3.47-39.3-17.61-63.44-6.1-13.22-14.22-31.74-15.17-41.48Z"/><path d="M39.33,219.02c-6.91,3.63-12.43,9.37-16.67,15.78-4.27,6.43-7.42,13.55-9.92,20.84-2.53,7.29-4.48,14.79-6,22.36-1.51,7.59-2.73,15.23-3.3,22.9-.31,3.84-.41,7.68-.36,11.51,.03,3.83,.28,7.66,.76,11.44,.49,3.77,1.22,7.52,2.4,11.05,.27,.9,.65,1.73,.98,2.59,.4,.81,.76,1.65,1.23,2.37l.34,.56,.41,.61,.81,1.2c.53,.8,1.08,1.55,1.63,2.31,2.25,2.95,4.86,5.55,8,7.44,3.12,1.93,6.61,3.26,10.23,4.2,1.84,.38,3.66,.83,5.54,1.04,1.86,.32,3.76,.43,5.65,.58,1.89,.16,3.81,.12,5.71,.19,1.89-.06,3.77-.14,5.65-.25,7.51-.7,14.84-2.87,21.6-6.24,6.72-3.45,12.87-8.06,18.09-13.53,2.57-2.75,4.99-5.7,6.8-8.91,.93-1.62,1.71-3.33,2.44-5.05,.69-1.75,1.31-3.53,1.83-5.34,1.03-3.63,1.72-7.38,2.1-11.16,.19-1.88,.31-3.8,.32-5.65-.04-1.81-.22-3.78-.41-5.67-.79-7.66-2.08-15.3-3.81-22.82-1.72-7.53-3.93-14.95-6.75-22.13-1.42-3.58-3-7.1-4.79-10.52-1.82-3.4-3.87-6.67-6.21-9.74-2.31-3.08-5.02-5.87-8.04-8.27-3.01-2.41-6.39-4.39-10.05-5.71,3.72,1.15,7.22,2.97,10.39,5.27,3.15,2.32,6,5.06,8.46,8.11,2.48,3.03,4.69,6.29,6.66,9.67,1.94,3.4,3.67,6.92,5.25,10.51,3.05,7.21,5.43,14.69,7.35,22.27,1.92,7.58,3.38,15.27,4.36,23.05,.24,1.96,.46,3.87,.55,5.94,.04,2.03-.04,4-.2,5.99-.33,3.96-1.02,7.89-2.06,11.75-.53,1.93-1.16,3.83-1.89,5.7-.76,1.86-1.58,3.7-2.56,5.47-1.98,3.59-4.5,6.72-7.19,9.66-5.45,5.83-11.92,10.67-19,14.35-7.13,3.59-14.93,5.94-22.91,6.7-1.99,.12-4,.2-5.99,.25-1.98-.08-3.96-.05-5.94-.22-1.98-.16-3.96-.3-5.94-.64-1.98-.23-3.94-.72-5.9-1.14-3.89-1.03-7.74-2.49-11.23-4.67-3.52-2.13-6.52-5.13-8.92-8.38-.58-.82-1.17-1.64-1.7-2.47l-.81-1.22-.4-.61-.41-.69c-1.1-1.84-1.85-3.75-2.47-5.68-1.24-3.86-1.95-7.78-2.42-11.72-.92-7.87-.78-15.78,0-23.59,.75-7.82,2.15-15.53,3.84-23.14,1.71-7.62,3.82-15.17,6.58-22.5,2.8-7.3,6.25-14.41,10.81-20.78,2.29-3.17,4.83-6.18,7.76-8.78,2.93-2.59,6.19-4.8,9.71-6.44Z"/></g></g></g></svg>