<?xml version="1.0" encoding="UTF-8"?><svg xmlns="http://www.w3.org/2000/svg" viewBox="0 0 106.05 433.67"><defs><style>.d{fill:#fff;stroke:#000;stroke-miterlimit:10;stroke-width:2px;}</style></defs><g id="a"/><g id="b"><g id="c"><g><path class="d" d="M3.44,324.94c.59-2.38,15.82-63.21,20.4-87.86,4.09-22,3.09-84.5,7.09-108S44.28-2.33,47.94,1.08c7.5,7,11,117.5,12,132s14.5,77,20,102.5,16.91,97.5,16.91,97.5h0c3.23,6.72,5.68,14.04,6.95,21.91,6.93,42.67-31.49,76.84-37.46,76.84-8.62,0-54.87-37.09-59.64-55.25-3.47-13.19-8.62-31.54-3.25-51.64h0Z"/><path d="M62.13,294.82c12.35,7.11,22.88,17.33,30.77,29.32,7.78,12.03,12.85,26.12,13.13,40.71,.17,7.27-.97,14.55-3.06,21.49-2.11,6.95-5.14,13.59-8.88,19.79-3.72,6.21-8.18,11.96-13.21,17.19-2.53,2.61-5.2,5.08-8.19,7.29-.37,.28-.76,.54-1.15,.81-.38,.27-.78,.53-1.21,.77l-.63,.37-.69,.34c-.43,.24-1.01,.43-1.55,.61-.37,.07-.76,.13-1.13,.16-.31-.03-.62-.06-.93-.1-.33-.03-.57-.11-.83-.18l-.77-.21c-.95-.33-1.84-.7-2.68-1.12-3.37-1.65-6.37-3.63-9.36-5.67-2.97-2.05-5.84-4.2-8.66-6.41-5.64-4.43-11.06-9.13-16.24-14.09-5.14-5-10.12-10.19-14.5-15.97-2.17-2.9-4.25-5.92-5.81-9.33-.78-1.68-1.35-3.66-1.74-5.32l-1.28-5.2c-1.67-6.95-2.99-14.06-3.41-21.26-.38-7.2,.15-14.47,1.81-21.49,1.72-7.01,4.64-13.66,8.23-19.83,1.83-3.08,3.83-6.06,6.19-8.75,2.37-2.68,5.07-5.09,8.14-6.89-2.97,1.96-5.52,4.49-7.71,7.25-2.22,2.75-4.08,5.77-5.77,8.87-3.31,6.25-5.91,12.87-7.31,19.75-1.4,6.88-1.73,13.94-1.16,20.92,.61,6.99,1.99,13.9,3.79,20.73l1.38,5.13c.47,1.79,.92,3.23,1.66,4.78,1.44,3.04,3.45,5.91,5.57,8.66,4.28,5.51,9.23,10.56,14.34,15.4,5.14,4.82,10.48,9.45,16.05,13.78,2.78,2.16,5.61,4.26,8.51,6.24,2.89,1.96,5.86,3.88,8.89,5.35,.76,.38,1.51,.68,2.23,.95l.52,.14c.17,.05,.36,.11,.47,.11,.13,.01,.26,.03,.39,.06,.07-.03,.12-.04,.18-.03,.54-.19,1.26-.49,1.95-.93,.35-.19,.7-.42,1.04-.66,.35-.23,.7-.46,1.03-.72,2.74-2,5.32-4.36,7.75-6.85,4.86-4.99,9.16-10.56,12.82-16.5,3.68-5.93,6.68-12.28,8.78-18.92,1.02-3.32,1.89-6.7,2.41-10.14,.17-.85,.28-1.72,.37-2.58,.09-.86,.22-1.72,.29-2.59,.1-1.73,.25-3.47,.21-5.21,.07-6.95-1.2-13.9-3.18-20.61-2.02-6.71-4.96-13.14-8.6-19.16-3.62-6.04-7.97-11.66-12.87-16.76-1.25-1.24-2.5-2.5-3.8-3.71-1.33-1.17-2.61-2.39-4.01-3.49l-2.05-1.69-2.13-1.6c-1.4-1.1-2.92-2.02-4.38-3.04Z"/></g></g></g></svg>