<?xml version="1.0" encoding="UTF-8"?><svg xmlns="http://www.w3.org/2000/svg" viewBox="0 0 122.59 230.95"><defs><style>.d,.e,.f{fill:#fff;}.e{stroke-width:2px;}.e,.f{stroke:#000;stroke-miterlimit:10;}.f{stroke-width:3.69px;}</style></defs><g id="a"/><g id="b"><g id="c"><g><path class="f" d="M103.64,12.19c-.62-.31-37.71-6-44.63-5.93-6.93,.08-16.78,5.28-16.78,5.28l21.7,11.26,39.71-10.62Z"/><path class="e" d="M120.73,20.53C117.92,9.98,104.1-.4,95.79,2.1c-8.31,2.5-22.16,12.09-32.32,9.45-10.16-2.64-28.52-7.28-33.7-7.95C24.58,2.93,3.45,10.68,1.6,20.87c-1.14,6.27,2.27,24.73,7.43,39.51,0,0,7.42,70.01,9.99,86.9,3.17,20.79,14.67,82.67,18,82.67s.42-65.33,5.21-79.33c4.79-14,9.97-32.67,19.05-34,9.08-1.33,14.41,31.33,14.41,49.33s7.71,58.83,12.38,57.5c4.67-1.33,9.04-82.17,12-103.5,2.96-21.33,16.1-63.83,16.11-63.85,4.44-14.28,5.82-30.79,4.55-35.57Z"/><g><path class="d" d="M76.42,79.37c-4.05-.17-9.36-.08-16.64,.56-3.9,.34-8.73,1.25-13.78,1.99"/><path d="M76.42,79.37c-2.55,.1-5.09,.21-7.63,.38-2.54,.18-5.07,.35-7.6,.57-2.54,.17-5.04,.5-7.57,.81l-3.8,.46c-1.27,.12-2.54,.27-3.82,.34,1.24-.3,2.49-.54,3.74-.83l3.76-.74c2.5-.48,5.06-.85,7.61-1.04,2.55-.19,5.1-.34,7.66-.33,2.56,0,5.12,.08,7.66,.39Z"/></g><path d="M25.81,82.26c-2.83-.59-5.71-1.62-7.85-3.76-2.04-2.15-3.61-4.68-4.98-7.27-2.72-5.21-4.82-10.7-6.65-16.26-1.79-5.58-3.29-11.25-4.49-16.99-.6-2.88-1.1-5.78-1.45-8.72-.17-1.47-.31-2.95-.37-4.46-.03-1.51-.06-3.04,.3-4.71,.38-1.66,1.15-3.15,2.08-4.45,.93-1.3,2.01-2.44,3.16-3.47,2.3-2.05,4.87-3.69,7.52-5.11,2.65-1.42,5.41-2.6,8.26-3.57,1.43-.48,2.88-.9,4.39-1.23,.76-.16,1.53-.3,2.36-.37,.41-.04,.84-.06,1.3-.05,.23,.02,.51,.03,.7,.06l.57,.08c3.01,.46,5.82,1.12,8.69,1.76,2.85,.65,5.69,1.32,8.53,2.01l8.49,2.1,4.24,1.07,2.12,.54,1.06,.27c.35,.08,.63,.12,.95,.18,2.48,.47,5.2,.18,7.87-.47,2.68-.65,5.34-1.65,7.97-2.75,2.64-1.11,5.25-2.35,7.92-3.56,1.34-.6,2.69-1.21,4.1-1.76,.69-.28,1.42-.54,2.16-.78l.56-.18,.64-.13,1.29-.24c3.44-.25,6.56,.78,9.33,2.14,2.78,1.39,5.27,3.21,7.5,5.29,2.22,2.09,4.2,4.46,5.75,7.14,.37,.68,.77,1.34,1.06,2.07,.31,.71,.65,1.42,.86,2.18l.36,1.13c.11,.38,.18,.82,.26,1.22,.11,.79,.17,1.57,.2,2.33,.1,3.03-.09,5.98-.39,8.92-.3,2.93-.72,5.85-1.26,8.74-1.07,5.78-2.51,11.49-4.48,17.04-1,2.77-2.14,5.49-3.49,8.12-1.35,2.62-2.92,5.15-4.87,7.4l-.74,.83-.8,.78c-.51,.54-1.13,.97-1.71,1.44-.28,.25-.62,.41-.93,.62-.32,.19-.62,.42-.96,.57-.68,.32-1.35,.65-2.04,.88-2.74,.98-5.57,1.9-8.49,2.07,2.9-.35,5.63-1.44,8.28-2.58,.68-.28,1.3-.62,1.93-.94,.32-.15,.59-.39,.89-.58,.28-.21,.6-.38,.86-.63,.53-.47,1.09-.91,1.56-1.45l.73-.78,.67-.84c1.77-2.24,3.17-4.77,4.37-7.38,1.19-2.62,2.17-5.33,3.02-8.08,1.72-5.5,2.96-11.16,3.8-16.87,.81-5.69,1.45-11.5,1.16-17.11-.05-.69-.12-1.37-.22-2.01-.07-.31-.11-.59-.22-.91l-.33-.95c-.19-.64-.5-1.25-.78-1.86-.26-.62-.63-1.2-.98-1.79-1.41-2.34-3.23-4.47-5.27-6.33-2.05-1.86-4.34-3.47-6.78-4.64-2.43-1.17-5.09-1.9-7.49-1.68l-.86,.18-.43,.08-.48,.16c-.64,.21-1.29,.44-1.94,.71-1.3,.51-2.61,1.11-3.92,1.7-2.62,1.21-5.27,2.48-7.99,3.64-2.73,1.16-5.53,2.24-8.51,2.98-2.96,.73-6.16,1.15-9.42,.55-.4-.08-.83-.15-1.19-.24l-1.05-.28-2.11-.55-4.22-1.09-8.46-2.14c-2.82-.7-5.64-1.38-8.47-2.04-2.81-.64-5.67-1.31-8.42-1.78l-.51-.08c-.17-.03-.25-.02-.38-.04-.27,0-.56,0-.88,.02-.62,.04-1.29,.15-1.96,.28-1.34,.27-2.69,.64-4.03,1.06-2.68,.86-5.3,1.95-7.81,3.24-2.5,1.29-4.9,2.79-6.98,4.57-2.07,1.76-3.87,3.89-4.48,6.26-.3,1.18-.33,2.59-.33,3.98,.02,1.4,.11,2.83,.25,4.25,.27,2.85,.69,5.7,1.17,8.55,.98,5.69,2.29,11.34,3.85,16.92,1.55,5.58,3.36,11.1,5.8,16.34,1.23,2.61,2.65,5.15,4.51,7.33,1.88,2.15,4.66,3.38,7.45,4.14Z"/></g></g></g></svg>