<?xml version="1.0" encoding="UTF-8"?><svg xmlns="http://www.w3.org/2000/svg" viewBox="0 0 132.47 404.27"><defs><style>.d{fill:#fff;stroke:#000;stroke-miterlimit:10;stroke-width:2px;}</style></defs><g id="a"/><g id="b"><g id="c"><g><path class="d" d="M15.64,261.93c11.88-31.55,20.97-91.25,22.27-112.25C39.21,128.68,21.2-.59,31.58,1.01c8.25,1.28,53.33,178.33,56.67,193.67,3.33,15.33,27.93,78.16,27.94,78.17,12.39,23.79,14.68,53.76,14.68,67.92,0,0,.77,36.01-3.39,44.32-4.16,8.31-10.77,14.31-44.94,16.62-34.17,2.31-42.69-1.61-45.86-2.31-3.63-.8-31.86-6.46-33.7-38.78-1.27-22.2-6.77-70.03,12.67-98.7h0Z"/><path d="M80.49,241.21c4.5,1.27,8.85,3.09,12.9,5.48,4.03,2.4,7.78,5.32,11.07,8.7,6.61,6.73,11.69,14.86,15.55,23.44,3.81,8.62,6.53,17.7,8.46,26.9,1.92,9.21,3.12,18.57,3.64,27.97,.39,9.42,.49,18.75,.16,28.16-.17,4.7-.42,9.4-.98,14.12-.15,1.18-.28,2.36-.51,3.55-.11,.6-.2,1.19-.32,1.79l-.45,1.81c-.12,.59-.39,1.23-.62,1.85l-.37,.93-.43,.82c-.27,.55-.59,1.09-.92,1.62-.31,.54-.67,1.06-1.06,1.57-1.5,2.06-3.43,3.83-5.54,5.19-2.11,1.4-4.39,2.33-6.66,3.22-4.58,1.62-9.27,2.59-13.95,3.32-4.68,.73-9.37,1.25-14.06,1.62-2.34,.2-4.69,.37-7.03,.5-2.34,.16-4.69,.26-7.04,.35-4.7,.16-9.41,.24-14.13,.09-4.72-.15-9.46-.44-14.2-1.24-2.35-.38-4.79-.96-7-1.61l-.76-.19-.87-.19c-.59-.14-1.18-.28-1.76-.44-1.17-.31-2.33-.67-3.47-1.07-4.57-1.59-8.94-3.84-12.82-6.81-3.87-2.96-7.26-6.61-9.77-10.81-2.54-4.17-4.26-8.82-5.18-13.56-.51-2.37-.74-4.77-.92-7.17l-.42-6.99c-.27-4.66-.54-9.34-.73-14.03-.37-9.37-.42-18.78,.21-28.16,.33-4.69,.79-9.38,1.52-14.03,.74-4.65,1.68-9.27,2.94-13.82,2.65-9.02,6.45-17.88,12.4-25.24,2.95-3.66,6.33-7.02,10.19-9.71,3.87-2.68,8.09-4.77,12.49-6.37-4.33,1.77-8.44,4.02-12.16,6.82-3.73,2.78-6.95,6.18-9.75,9.86-5.63,7.39-9.09,16.18-11.42,25.11-1.13,4.49-1.99,9.05-2.63,13.65-.63,4.6-1,9.23-1.24,13.86-.45,9.28-.23,18.59,.3,27.89,.27,4.65,.62,9.3,.98,13.96l.5,7c.19,2.26,.43,4.52,.93,6.72,.44,2.21,1.09,4.37,1.9,6.46,.78,2.1,1.82,4.09,2.98,5.99,2.32,3.81,5.44,7.1,9.01,9.78,3.58,2.67,7.62,4.77,11.88,6.23,1.06,.37,2.14,.7,3.23,.99,.54,.15,1.09,.28,1.64,.41l.84,.19,.94,.23c2.27,.66,4.39,1.15,6.65,1.51,4.48,.74,9.1,1.02,13.71,1.15,4.62,.14,9.26,.03,13.9-.13,2.32-.09,4.64-.18,6.96-.33,2.32-.12,4.64-.28,6.95-.47,4.63-.35,9.24-.85,13.79-1.54,4.55-.69,9.07-1.62,13.3-3.11,2.08-.8,4.15-1.64,5.95-2.84,1.8-1.18,3.39-2.58,4.66-4.29,.33-.42,.64-.86,.91-1.33,.29-.45,.57-.92,.82-1.42l.39-.73,.27-.7c.18-.47,.39-.91,.51-1.47l.41-1.59c.12-.54,.21-1.11,.32-1.66,.23-1.1,.37-2.24,.52-3.38,.58-4.55,.88-9.19,1.09-13.83,.38-9.27,.44-18.65,.24-27.9-.34-9.27-1.36-18.52-3.09-27.64-1.73-9.12-4.28-18.09-7.84-26.64-3.54-8.55-8.29-16.67-14.6-23.48-6.3-6.81-14.36-11.98-23.27-14.85Z"/></g></g></g></svg>