<?xml version="1.0" encoding="UTF-8"?><svg xmlns="http://www.w3.org/2000/svg" viewBox="0 0 108.58 361.69"><defs><style>.d{fill:#fff;stroke:#000;stroke-miterlimit:10;stroke-width:2px;}</style></defs><g id="a"/><g id="b"><g id="c"><g><path class="d" d="M34.27,197.22c1.46-15,5.38-48.17,4.38-83.5-.58-20.52-4.67-116,.67-112.64,6.6,4.16,25.53,64.71,29.33,82.3,5.33,24.67,8.67,88.33,11.17,99.83s13.27,63.3,13.27,63.3h0c6.37,13.8,9.86,29.62,11.89,41.78,4.56,27.24,.86,46.17-3.75,53.09-4.62,6.93-11.08,18.47-39.71,18.47s-47.56-19.85-53.1-29.55c-5.54-9.7-6.93-21.24-6.93-28.16,0-4.47,3.47-39.3,17.61-63.44,6.1-13.22,14.22-31.74,15.17-41.48Z"/><path d="M69.24,219.02c3.52,1.64,6.79,3.85,9.71,6.44,2.93,2.6,5.47,5.61,7.76,8.78,4.57,6.37,8.01,13.48,10.81,20.78,2.76,7.32,4.87,14.87,6.58,22.5,1.69,7.62,3.09,15.32,3.84,23.14,.77,7.81,.91,15.72,0,23.59-.46,3.93-1.18,7.86-2.42,11.72-.62,1.93-1.37,3.84-2.47,5.68l-.41,.69-.4,.61-.81,1.22c-.54,.82-1.12,1.65-1.7,2.47-2.4,3.26-5.39,6.25-8.92,8.38-3.49,2.18-7.34,3.65-11.23,4.67-1.96,.42-3.92,.9-5.9,1.14-1.97,.34-3.96,.47-5.94,.64-1.98,.17-3.96,.14-5.94,.22-1.99-.05-4-.13-5.99-.25-7.98-.76-15.77-3.11-22.91-6.7-7.09-3.69-13.55-8.52-19-14.35-2.69-2.95-5.21-6.07-7.19-9.66-.99-1.77-1.8-3.61-2.56-5.47-.72-1.87-1.36-3.77-1.89-5.7-1.04-3.85-1.73-7.79-2.06-11.75-.16-1.99-.24-3.95-.2-5.99,.09-2.07,.32-3.98,.55-5.94,.98-7.78,2.45-15.47,4.36-23.05,1.91-7.58,4.3-15.06,7.35-22.27,1.57-3.59,3.31-7.1,5.25-10.51,1.98-3.38,4.18-6.64,6.66-9.67,2.46-3.05,5.31-5.79,8.46-8.11,3.16-2.3,6.67-4.12,10.39-5.27-3.66,1.33-7.04,3.3-10.05,5.71-3.01,2.4-5.72,5.19-8.04,8.27-2.33,3.07-4.38,6.34-6.21,9.74-1.79,3.42-3.37,6.94-4.79,10.52-2.82,7.18-5.03,14.6-6.75,22.13-1.73,7.52-3.01,15.16-3.81,22.82-.19,1.9-.37,3.86-.41,5.67,0,1.85,.12,3.77,.32,5.65,.38,3.78,1.06,7.52,2.1,11.16,.52,1.82,1.14,3.6,1.83,5.34,.73,1.73,1.51,3.44,2.44,5.05,1.81,3.21,4.23,6.16,6.8,8.91,5.22,5.47,11.37,10.08,18.09,13.53,6.76,3.36,14.1,5.54,21.6,6.24,1.88,.12,3.76,.2,5.65,.25,1.9-.07,3.82-.03,5.71-.19,1.89-.15,3.79-.27,5.65-.58,1.88-.21,3.7-.66,5.54-1.04,3.62-.94,7.11-2.27,10.23-4.2,3.15-1.89,5.75-4.49,8-7.44,.55-.76,1.1-1.51,1.63-2.31l.81-1.2,.41-.61,.34-.56c.48-.72,.84-1.57,1.23-2.37,.33-.86,.71-1.69,.98-2.59,1.18-3.53,1.91-7.28,2.4-11.05,.47-3.78,.73-7.6,.76-11.44,.05-3.83-.06-7.68-.36-11.51-.57-7.67-1.78-15.32-3.3-22.9-1.52-7.58-3.46-15.07-6-22.36-2.51-7.29-5.65-14.41-9.92-20.84-4.24-6.41-9.76-12.15-16.67-15.78Z"/></g></g></g></svg>