<?xml version="1.0" encoding="UTF-8"?><svg xmlns="http://www.w3.org/2000/svg" viewBox="0 0 78.31 278.11"><defs><style>.d{fill:#fff;stroke:#000;stroke-miterlimit:10;stroke-width:2px;}</style></defs><g id="a"/><g id="b"><g id="c"><g><path class="d" d="M6.24,60.99c-.81-2.66-1.47-5.44-1.93-8.33-.4-2.49-.74-4.94-1.04-7.35-.31-1.4-.45-2.67-.44-3.83C.89,23.25,1.76,8.43,4.46,3.81c3.29-5.64,27.24,2.31,34.17,2.31s29.55-3.9,33.24-1.95c3.69,1.95,5.08,21.34,5.08,32.88,0,.85-.05,1.76-.14,2.7l.14-.02s-12.41,78.6-15.75,90.25c-3.33,11.65-48.42,146.14-56.67,147.11-10.38,1.22,5.27-96.96,6.33-112.93,2.97-44.65-1.08-81.55-4.63-103.17Z"/><path d="M34.18,97.56c-2.38-1.45-4.68-3.02-6.89-4.74-2.17-1.76-4.28-3.6-6.23-5.62-3.94-3.98-7.43-8.44-10.28-13.31-2.84-4.87-5.05-10.13-6.52-15.61-.42-1.36-.67-2.76-.96-4.14-.31-1.4-.49-2.77-.73-4.15-.44-2.76-.83-5.54-1.16-8.32C.74,36.11,.29,30.51,.18,24.89c-.06-5.63,0-11.26,1.08-17,.34-1.45,.63-2.88,1.39-4.4l.27-.56c.15-.23,.33-.47,.51-.7,.37-.4,.81-.78,1.23-1.01,.87-.53,1.7-.74,2.51-.92C8.78,0,10.28-.03,11.75,.02c1.47,.05,2.9,.19,4.32,.37,5.65,.73,11.11,2,16.52,3.04,1.35,.26,2.69,.51,4,.69,.64,.08,1.3,.16,1.87,.16,.61,.01,1.28-.01,1.95-.05,2.69-.16,5.46-.47,8.21-.76,5.53-.58,11.05-1.29,16.74-1.53,1.43-.05,2.86-.07,4.38,.05,.78,.09,1.53,.13,2.56,.53,.13,.06,.26,.11,.4,.18,.14,.09,.28,.18,.41,.27,.3,.2,.43,.39,.64,.59,.34,.4,.59,.79,.8,1.16,.79,1.5,1.18,2.92,1.54,4.34,.34,1.42,.6,2.82,.82,4.23,.86,5.62,1.2,11.21,1.35,16.82,.04,1.4,.06,2.8,.06,4.2,0,1.41,.02,2.78-.09,4.26-.21,2.9-.73,5.69-1.4,8.43-1.35,5.48-3.09,10.78-4.88,16.06-.9,2.63-1.83,5.26-2.67,7.89-.42,1.32-.82,2.64-1.15,3.96-.29,1.28-.5,2.73-.87,4.09-1.45,5.43-3.63,10.63-6.58,15.36,1.32-2.45,2.41-5.01,3.34-7.62,.93-2.61,1.73-5.27,2.29-7.96,.3-1.35,.41-2.67,.66-4.12,.28-1.39,.62-2.75,.98-4.1,.72-2.7,1.52-5.37,2.29-8.04,1.57-5.33,3.13-10.66,4.24-16.04,.54-2.69,.98-5.39,1.1-8.05,.07-1.3,.02-2.7-.02-4.08-.04-1.38-.1-2.76-.17-4.14-.31-5.51-.77-11.03-1.66-16.41-.23-1.34-.5-2.67-.83-3.95-.33-1.27-.74-2.55-1.27-3.5-.13-.23-.27-.42-.38-.55-.05-.03-.11-.14-.12-.11,0,0-.01,0-.02-.02l-.08-.03c-.27-.11-.93-.21-1.53-.25-1.26-.08-2.61-.04-3.96,.03-5.44,.3-10.96,1-16.49,1.62-2.77,.31-5.54,.63-8.4,.82-.72,.05-1.44,.08-2.22,.07-.82,0-1.55-.1-2.28-.18-1.45-.19-2.84-.44-4.23-.7-5.51-1.09-10.9-2.37-16.28-3.09-2.66-.34-5.42-.58-7.73-.17-.55,.12-1.08,.27-1.4,.48-.2,.09-.28,.2-.38,.29-.03,.05-.06,.09-.11,.14l-.18,.38c-.51,.96-.84,2.28-1.14,3.53-1.07,5.2-1.25,10.76-1.26,16.24,.05,5.5,.35,11.02,.86,16.52,.55,5.48,1.15,11.04,2.33,16.33,1.22,5.32,3.19,10.47,5.76,15.32,2.53,4.87,5.73,9.41,9.42,13.52,3.68,4.12,7.85,7.82,12.41,11.03Z"/></g></g></g></svg>