<?xml version="1.0" encoding="UTF-8"?><svg xmlns="http://www.w3.org/2000/svg" viewBox="0 0 107.06 329.65"><defs><style>.d{fill:#fff;stroke:#000;stroke-miterlimit:10;stroke-width:2px;}</style></defs><g id="a"/><g id="b"><g id="c"><g><path class="d" d="M79.99,189.5C72.55,151.59,61.95,.15,53.54,1c-4.94,.5-18.05,129.68-24.56,158.5-7.47,33.07-22.34,98.79-23.4,103.5h0c-.85,1.74-1.67,3.48-2.43,5.24-11.61,26.67,36.77,60.54,55.15,59.57,18.39-.97,47.41-30.82,47.41-49.28,0-9.57-2.09-23.03-8.56-34.44-4.41-11.28-13.46-35.64-17.17-54.59Z"/><path d="M42.09,225.03c-2.7,1.26-5.37,2.61-7.81,4.31-2.51,1.59-4.81,3.48-7.05,5.41-4.39,3.98-8.24,8.51-11.63,13.35-3.42,4.82-6.33,9.99-8.87,15.32-.65,1.33-1.24,2.68-1.83,4.03-.64,1.37-1.07,2.66-1.47,4.01-.76,2.7-.79,5.55-.4,8.33,.79,5.6,3.54,10.84,6.85,15.56,3.4,4.7,7.46,8.96,11.91,12.76,4.43,3.82,9.22,7.24,14.26,10.21,5.05,2.9,10.38,5.48,15.9,6.87,.69,.19,1.37,.33,2.06,.45,.69,.16,1.37,.21,2.05,.28,.69,.11,1.33,.04,2,.07,.67-.05,1.34-.1,2.02-.2,2.71-.44,5.4-1.39,7.98-2.61,5.18-2.46,9.96-5.91,14.38-9.7,4.42-3.82,8.47-8.11,12.03-12.74,1.78-2.32,3.41-4.74,4.87-7.26,1.46-2.51,2.73-5.12,3.66-7.83,.22-.68,.42-1.36,.62-2.04,.14-.69,.34-1.38,.44-2.07,.1-.69,.23-1.39,.24-2.08,.02-.35,.05-.68,.06-1.04v-1.1c0-2.93-.27-5.86-.56-8.78-.72-5.83-2.06-11.6-4.15-17.1-2.06-5.5-4.91-10.75-8.71-15.27-3.79-4.52-8.58-8.23-14-10.77l4.08,1.87,3.86,2.32c1.19,.91,2.38,1.83,3.56,2.77,1.07,1.05,2.2,2.06,3.24,3.15,4.1,4.43,7.28,9.69,9.66,15.24,2.35,5.58,3.92,11.47,4.87,17.45,.42,3,.76,6.02,.82,9.06l.04,1.14c0,.39-.02,.79-.03,1.19,0,.8-.13,1.58-.22,2.37-.1,.79-.29,1.54-.44,2.32-.2,.75-.4,1.51-.63,2.25-1.91,5.92-5.06,11.25-8.68,16.13-3.64,4.88-7.76,9.38-12.31,13.43-4.57,4.02-9.55,7.63-15.14,10.33-2.8,1.33-5.77,2.42-8.96,2.96-.8,.13-1.61,.2-2.43,.26-.82-.02-1.68,.05-2.47-.07-.8-.08-1.61-.15-2.38-.32-.78-.14-1.56-.28-2.31-.5-6.07-1.57-11.57-4.29-16.83-7.34-5.22-3.12-10.19-6.65-14.73-10.69-4.56-4.01-8.74-8.51-12.26-13.53-1.75-2.52-3.28-5.21-4.55-8.04-1.26-2.83-2.12-5.88-2.51-9-.36-3.12-.24-6.36,.69-9.41,.48-1.5,1.05-3.02,1.71-4.34,.63-1.37,1.29-2.72,1.99-4.06,2.78-5.35,5.9-10.53,9.57-15.31,3.68-4.77,7.81-9.2,12.45-13.03,2.37-1.85,4.78-3.66,7.39-5.14,2.57-1.55,5.33-2.75,8.1-3.84Z"/></g></g></g></svg>