<?xml version="1.0" encoding="UTF-8"?><svg xmlns="http://www.w3.org/2000/svg" viewBox="0 0 115.65 235.85"><defs><style>.d{stroke-width:2px;}.d,.e{fill:#fff;stroke:#000;stroke-miterlimit:10;}.e{stroke-width:3.69px;}</style></defs><g id="a"/><g id="b"><g id="c"><g><path class="d" d="M53.56,27.26c-3.37-31.11-18.44,37.8-11.56,82.19s26.56,31.34,26.56,31.34l-4.07-28.79s-8.06-58.21-10.93-84.74Z"/><path class="e" d="M47.17,225.53s18.7,2.43,21.47,2.89c2.77,.46,13.16-12,13.16-12l-9.93-13.85-24.7,22.96Z"/><path class="d" d="M1.94,181.12s0-.03,0-.05c2.5-31.52,18.91-45.65,18.91-68.05V39.63c0-11.91,6.61-42,7.8-29.54,4.05,42.41,19.02,97.69,33.37,94.82C76.37,102.03,88.89-1.13,91.34,1.03c11.85,10.48,1.87,103.88,3.74,121.51s15.49,37.73,18.03,58.85c0,.03,0,.06,0,.09,.6,2.88,1.04,5.97,1.26,9.34,1.31,19.67-15,39.03-23.79,39.03-12.12,0-17.72-8.94-24.38-7.98-6.68,.97-16.99,11.99-29.92,12.19-12.93,.2-35.16-27.41-35.16-43.6,0-3.22,.28-6.35,.81-9.36Z"/><path d="M35.23,149.21c3-.72,6.05-1.18,9.12-1.52,3.07-.35,6.15-.52,9.23-.6,3.08-.06,6.17-.02,9.25,.17,3.08,.19,6.15,.47,9.19,.98-1.54-.03-3.08-.12-4.61-.13-1.53-.05-3.07-.08-4.61-.08-3.07-.01-6.14-.02-9.2,.06-3.07,.06-6.13,.19-9.19,.36-1.53,.08-3.06,.2-4.59,.33l-2.3,.2c-.76,.09-1.53,.16-2.3,.23Z"/><path d="M92.63,153.64c2.43,1.11,4.77,2.45,6.95,4.03,2.18,1.58,4.14,3.47,5.88,5.54,.9,1.01,1.66,2.14,2.46,3.24,.7,1.16,1.46,2.29,2.05,3.52,1.3,2.39,2.26,4.95,3.1,7.53,.37,1.3,.78,2.61,1.04,3.94l.44,1.99,.33,2.01c.25,1.34,.38,2.68,.52,4.03,.16,1.33,.26,2.73,.25,4.11,.03,5.53-1.24,11.01-3.33,16.09-2.09,5.09-4.98,9.85-8.68,13.99-1.87,2.06-3.91,3.98-6.34,5.56-1.22,.78-2.53,1.47-4.02,1.93-.37,.12-.75,.22-1.16,.29-.39,.09-.81,.12-1.23,.15-.8,.03-1.46-.04-2.19-.05-2.86-.18-5.7-.9-8.31-1.99-2.62-1.07-5-2.52-7.28-3.78-2.27-1.26-4.51-2.32-6.46-2.07-1,.15-2.1,.49-3.22,1.06-1.12,.52-2.24,1.17-3.37,1.82-4.52,2.67-9.19,5.66-14.5,7.53-2.64,.95-5.45,1.58-8.32,1.7-.36,.02-.7,.06-1.09,.05l-1.18-.06c-.76-.11-1.53-.21-2.24-.44-1.46-.37-2.78-.98-4.06-1.62-5.03-2.7-9.1-6.47-12.79-10.49-3.67-4.05-6.88-8.47-9.59-13.21-2.67-4.74-4.98-9.78-5.94-15.28-.26-1.37-.35-2.78-.36-4.2,.07-1.37,.07-2.72,.23-4.08,.2-2.72,.71-5.4,1.33-8.05,.69-2.63,1.6-5.21,2.72-7.68,1.17-2.45,2.54-4.8,4.15-6.98,1.65-2.15,3.51-4.12,5.57-5.86,2.11-1.68,4.39-3.11,6.79-4.29-2.31,1.35-4.47,2.92-6.42,4.71-1.92,1.82-3.64,3.84-5.14,6.01-1.46,2.2-2.66,4.55-3.67,6.97-.95,2.45-1.7,4.97-2.23,7.53-.48,2.58-.89,5.17-.98,7.79-.1,1.3-.05,2.62-.07,3.92,.06,1.25,.18,2.51,.47,3.76,1.07,5.01,3.35,9.8,6.05,14.27,2.73,4.46,5.93,8.65,9.48,12.47,3.56,3.78,7.55,7.28,12,9.57,1.11,.53,2.25,1.03,3.38,1.31,.57,.18,1.13,.23,1.69,.32l.82,.04c.28,0,.61-.04,.91-.05,2.47-.12,4.92-.67,7.3-1.54,4.8-1.71,9.19-4.54,13.84-7.31,1.18-.68,2.37-1.36,3.68-1.96,1.26-.62,2.74-1.14,4.37-1.36,1.7-.23,3.33,.19,4.74,.68,1.44,.51,2.66,1.2,3.87,1.86,2.37,1.34,4.58,2.68,6.9,3.65,2.31,.98,4.72,1.59,7.19,1.8,.6,.02,1.28,.09,1.81,.08,.24-.01,.49-.02,.75-.08,.26-.03,.52-.09,.79-.18,1.07-.31,2.15-.85,3.19-1.49,2.09-1.3,4-3.03,5.75-4.89,3.47-3.78,6.32-8.2,8.42-12.94,2.11-4.73,3.38-9.84,3.56-15,.06-1.29,0-2.57-.1-3.89-.09-1.31-.17-2.63-.36-3.93l-.24-1.96-.35-1.94c-.2-1.3-.56-2.56-.85-3.84-.68-2.53-1.48-5.04-2.61-7.41-.51-1.21-1.19-2.34-1.81-3.5-.72-1.1-1.39-2.23-2.22-3.26-3.16-4.23-7.38-7.62-12.07-10.18Z"/></g></g></g></svg>