<?xml version="1.0" encoding="UTF-8"?><svg xmlns="http://www.w3.org/2000/svg" viewBox="0 0 88.86 262.13"><defs><style>.d{fill:#fff;stroke:#000;stroke-miterlimit:10;stroke-width:2px;}</style></defs><g id="a"/><g id="b"><g id="c"><path class="d" d="M81.99,17.94C75.83,8.4,64.75,3.78,43.82,1.93,31.54,.85,14.27,6.86,8.12,15.48,2.49,23.35,.47,60.01,2.04,73.79h0c.15,1.3,.32,2.41,.54,3.25,.97,3.88,4.37,12.43,9.02,21.38,4.52,11.8,9.2,24.28,10.4,28.49,2.5,8.74,8.33,52.9,13.67,71.64,3.8,13.36,22.73,59.36,29.33,62.52,5.33,2.55-3.75-67.64-4.33-83.22-1-26.84,7.92-54.38,9.38-65.77,.68-5.33,3.87-15.23,7.26-24.67,4.35-7.72,7.66-15.68,9-22.98,.04-.08,.05-.16,.04-.24,1.94-10.88,2.08-36.26-4.35-46.24Z"/><path d="M60.1,111.12c8.52-10.06,15.92-21.16,20.95-33.25,2.53-6.04,4.32-12.31,4.74-18.8,.27-3.25,.37-6.52,.37-9.78,0-3.27-.12-6.53-.39-9.78-.25-3.25-.67-6.48-1.3-9.64-.64-3.14-1.42-6.29-2.75-9.07-.35-.67-.74-1.32-1.09-1.98-.46-.62-.88-1.28-1.37-1.88-.51-.58-.96-1.21-1.53-1.74l-.81-.83c-.28-.27-.58-.51-.87-.77-2.34-2.02-5.07-3.6-7.98-4.83-2.92-1.22-6-2.12-9.14-2.83-3.14-.72-6.35-1.23-9.58-1.62-1.61-.21-3.24-.37-4.86-.52-1.63-.15-3.13-.21-4.72-.16-3.15,.1-6.32,.58-9.41,1.33-3.1,.74-6.15,1.75-9.05,3.03-2.9,1.29-5.68,2.86-8.08,4.8-.6,.49-1.2,.97-1.71,1.53-.27,.27-.54,.53-.8,.8l-.7,.86c-.24,.29-.48,.58-.63,.86-.18,.26-.35,.58-.5,.91-.17,.31-.31,.66-.45,1.02-.15,.35-.29,.7-.41,1.07-1.03,2.94-1.66,6.15-2.24,9.33-1.12,6.41-1.77,12.95-2.21,19.49-.41,6.54-.64,13.12-.47,19.64,.14,3.24,.23,6.55,1.09,9.48,.9,3.07,2.1,6.14,3.33,9.16,2.5,6.05,5.36,11.98,8.57,17.7,1.6,2.86,3.3,5.67,5.14,8.38,1.84,2.7,3.84,5.32,6.1,7.66,1.11,1.2,2.35,2.26,3.63,3.26,1.31,.95,2.72,1.77,4.25,2.28,1.52,.54,3.18,.59,4.76,.17,1.59-.4,3.1-1.09,4.55-1.86-1.41,.86-2.88,1.63-4.48,2.13-1.58,.52-3.37,.57-5,.1-1.63-.46-3.14-1.26-4.54-2.18-1.36-.97-2.69-2.01-3.87-3.19-2.42-2.31-4.56-4.88-6.55-7.55-1.99-2.67-3.83-5.44-5.57-8.27-3.45-5.68-6.5-11.59-9.24-17.66-1.36-3.05-2.63-6.11-3.66-9.36-.25-.81-.48-1.68-.64-2.55-.16-.86-.27-1.7-.37-2.54-.19-1.68-.31-3.35-.4-5.02-.33-6.67-.23-13.31,.12-19.95,.36-6.64,.92-13.26,1.99-19.88,.55-3.31,1.2-6.61,2.32-9.92,.13-.41,.29-.83,.46-1.24,.16-.41,.33-.83,.55-1.25,.19-.42,.41-.83,.69-1.26,.25-.44,.54-.79,.82-1.14l.86-1.06c.3-.33,.63-.64,.94-.96,.61-.66,1.29-1.21,1.97-1.78,2.73-2.22,5.75-3.92,8.87-5.33,3.13-1.4,6.37-2.49,9.68-3.29C32.8,.62,36.19,.12,39.64,.02c1.71-.06,3.51,.03,5.17,.19,1.66,.17,3.32,.33,4.98,.56,3.32,.41,6.63,.96,9.93,1.73,3.29,.76,6.57,1.72,9.72,3.1,6.32,2.69,12.12,7.38,15.2,13.85,1.48,3.22,2.26,6.55,2.87,9.87,.59,3.33,.95,6.67,1.13,10.01,.21,3.34,.26,6.68,.18,10.01-.07,3.33-.24,6.67-.63,9.99-.19,1.66-.42,3.32-.73,4.99-.36,1.65-.71,3.3-1.22,4.91-.95,3.22-2.14,6.36-3.54,9.39-1.39,3.03-2.94,5.98-4.63,8.84-1.66,2.88-3.49,5.65-5.38,8.37-1.89,2.73-3.91,5.35-5.99,7.92-2.12,2.55-4.32,5.01-6.6,7.4Z"/></g></g></svg>