<?xml version="1.0" encoding="UTF-8"?><svg xmlns="http://www.w3.org/2000/svg" viewBox="0 0 87.35 239.89"><defs><style>.d{stroke-width:2px;}.d,.e{fill:#fff;stroke:#000;stroke-miterlimit:10;}.e{stroke-width:3.69px;}</style></defs><g id="a"/><g id="b"><g id="c"><g><path class="e" d="M68.53,12.06S57.14,.98,46.68,1.9c-10.47,.92-27.7,10.16-27.7,10.16l24.72,4.92,24.84-4.92Z"/><path class="d" d="M67.99,4.13c-6.46,0-19.39,7.39-25.16,5.54-5.77-1.85-20.78-4.16-27.47-3.34C8.66,7.16-.42,13.29,2.05,29.11c1.82,11.72,1.62,27.13,3.9,38.34h0c-1.22-4.09,5.9,24.03,13.93,51.04,6.51,21.89,19.61,120.02,24.56,120.4,8.4,.65,15.25-109.38,22.69-138.18,3.65-14.14,5.56-29.7,8.14-42.1,1.03-3.9,2.15-8.06,3.26-12.23h0c.08-.22,.14-.45,.18-.67,2.99-11.22,5.89-22.23,6.84-27.27,2.08-11.08-11.08-14.31-17.54-14.31Z"/><path d="M38.75,99.42c-2.84-.65-5.63-1.56-8.31-2.74-2.68-1.18-5.24-2.67-7.65-4.35-4.82-3.37-9.1-7.54-12.62-12.3-.9-1.18-1.7-2.42-2.43-3.79-.41-.66-.62-1.38-.94-2.07-.32-.69-.53-1.41-.77-2.12-.92-2.85-1.54-5.76-1.99-8.68-.95-5.83-1.33-11.67-1.83-17.47-.47-5.82-.96-11.53-1.85-17.27-.48-2.99-.5-6.12,.01-9.21,.54-3.08,1.71-6.19,3.79-8.7,1.01-1.27,2.23-2.37,3.56-3.31,1.36-.89,2.81-1.64,4.36-2.14,1.54-.5,3.21-.76,4.75-.83,1.54-.08,3.05-.05,4.54,.02,5.97,.31,11.78,1.14,17.61,2.34,1.46,.33,2.91,.67,4.4,1.14,.91,.29,2.22,.23,3.5,.05,2.63-.41,5.37-1.3,8.1-2.23,2.75-.92,5.5-1.93,8.45-2.7,1.48-.36,3.07-.68,4.77-.68,1.59,0,3.11,.21,4.64,.48,3.02,.59,6.03,1.54,8.74,3.32,1.36,.85,2.61,2,3.63,3.34l.71,1.06c.23,.36,.37,.77,.55,1.16,.4,.77,.52,1.63,.73,2.46,.1,.42,.07,.84,.11,1.26,0,.42,.07,.85,.03,1.25-.1,.8-.16,1.68-.31,2.4-.3,1.46-.63,2.9-.98,4.32-.7,2.85-1.46,5.67-2.22,8.49-3.03,11.27-6.32,22.44-9.44,33.66-.79,2.8-1.58,5.6-2.28,8.41-.17,.7-.36,1.41-.5,2.1l-.22,1.05-.26,1.12c-.41,1.47-1.01,2.83-1.69,4.14-2.76,5.22-6.53,9.83-11,13.58,2.11-2.01,4.01-4.22,5.69-6.58,1.7-2.34,3.22-4.82,4.42-7.43,.6-1.3,1.12-2.64,1.42-4l.18-1.02,.18-1.1c.11-.74,.27-1.45,.4-2.17,.58-2.87,1.23-5.72,1.89-8.56,2.71-11.34,5.62-22.63,8.4-33.92,.69-2.82,1.37-5.65,1.99-8.47,.32-1.41,.62-2.82,.89-4.21,.14-.7,.14-1.29,.23-1.93,.03-.32-.03-.62-.04-.92-.04-.3,0-.62-.09-.91-.18-.57-.23-1.19-.54-1.71-.14-.27-.22-.55-.39-.81l-.52-.75c-.75-.95-1.68-1.82-2.8-2.49-2.19-1.4-4.85-2.23-7.54-2.71-1.34-.21-2.72-.38-4.05-.38-1.22,0-2.51,.25-3.85,.59-2.68,.71-5.4,1.71-8.17,2.66-2.78,.95-5.6,1.91-8.72,2.42-1.58,.2-3.25,.39-5.16-.16-1.29-.4-2.68-.72-4.06-1.04-5.57-1.18-11.32-2.03-16.99-2.35-1.41-.07-2.82-.1-4.19-.04-1.37,.06-2.6,.26-3.83,.64-1.23,.39-2.38,.99-3.46,1.68-1.05,.75-2.03,1.58-2.85,2.59-1.68,1.96-2.68,4.48-3.19,7.1-.48,2.64-.52,5.42-.12,8.18,.83,5.79,1.2,11.71,1.51,17.51,.33,5.81,.62,11.62,1.35,17.32,.35,2.86,.85,5.68,1.62,8.4,.2,.68,.37,1.37,.65,2.01,.27,.64,.45,1.34,.8,1.93,.59,1.23,1.34,2.45,2.15,3.64,3.19,4.76,7.16,9.03,11.72,12.55,2.28,1.76,4.73,3.33,7.31,4.63,2.57,1.33,5.28,2.41,8.07,3.24Z"/></g></g></g></svg>