<?xml version="1.0" encoding="UTF-8"?><svg xmlns="http://www.w3.org/2000/svg" viewBox="0 0 76.56 316.12"><defs><style>.d{fill:#fff;stroke:#000;stroke-miterlimit:10;stroke-width:2px;}</style></defs><g id="a"/><g id="b"><g id="c"><g><path class="d" d="M1.99,47.58C4.76,27.27,15.61,2.8,23,1.87c7.39-.92,26.08,13.39,39.93,28.16,6.97,7.44,10.57,19.33,11.76,30.84l.47,.12s3.43,34.12-9.74,75.93c-6.05,19.21-19,66.85-20,77.86s-4.5,94.95-12,100.27c-3.66,2.59-13-79.38-17-97.23-4-17.85,2.59-60.33-1.5-77.04-2.77-11.32-6.68-36.7-9.47-55.43-1.62-7.8-2.82-15.56-3.41-22.39h0c-.53-6.08-.59-11.42-.05-15.39Z"/><path d="M53,115.13c2.02-2.3,3.98-4.65,5.86-7.06,1.9-2.4,3.74-4.83,5.49-7.33,1.75-2.49,3.43-5.04,4.94-7.67,.75-1.31,1.47-2.65,2.04-4.01,.56-1.36,.98-2.79,1.32-4.24,.66-2.92,1.05-5.91,1.23-8.92,.18-3.01,.2-6.03,.03-9.05-.33-6.02-1.2-12.03-2.83-17.79-1.64-5.74-4.03-11.32-7.63-15.9-.88-1.15-1.88-2.18-2.95-3.29-1.06-1.08-2.13-2.16-3.21-3.21-2.17-2.11-4.39-4.18-6.67-6.18-4.56-3.98-9.27-7.81-14.27-11.13-2.5-1.65-5.07-3.18-7.71-4.35-1.31-.57-2.67-1.05-3.91-1.23-.62-.11-1.22-.11-1.64-.02-.4,.06-.9,.32-1.4,.67-1,.7-1.98,1.72-2.87,2.83-.89,1.11-1.72,2.32-2.49,3.57-1.54,2.52-2.91,5.19-4.13,7.92-2.46,5.48-4.42,11.21-6,17.03-.79,2.91-1.47,5.85-2.01,8.81-.56,2.99-.9,5.85-.93,8.85-.07,5.98,.48,12.05,1.24,18.07,.79,6.02,1.85,12.02,3.11,17.98,1.24,5.96,2.75,11.87,4.51,17.7,1.78,5.81,3.75,11.61,6.57,16.98,1.43,2.64,3.04,5.32,5.44,7.09,1.18,.9,2.71,1.2,4.21,1.12,1.51-.08,3-.5,4.43-1.04-1.39,.63-2.86,1.15-4.4,1.32-1.53,.18-3.2-.04-4.54-.93-2.65-1.78-4.4-4.45-5.99-7.08-3.12-5.35-5.38-11.11-7.44-16.9-3.95-11.66-6.85-23.65-8.75-35.83C.7,65.8,0,59.65,0,53.38c-.02-3.12,.31-6.36,.84-9.4,.51-3.07,1.17-6.11,1.94-9.12,1.56-6.01,3.57-11.9,6.09-17.61,1.26-2.85,2.67-5.65,4.31-8.36,.82-1.36,1.73-2.68,2.74-3.96,1.03-1.27,2.15-2.52,3.66-3.58,.76-.51,1.63-1.01,2.75-1.22,1.08-.21,2.04-.15,2.92,0,1.78,.29,3.33,.87,4.82,1.52,2.96,1.32,5.65,2.95,8.25,4.69,5.18,3.49,10,7.39,14.59,11.53,2.29,2.07,4.53,4.21,6.71,6.39,1.09,1.09,2.17,2.2,3.23,3.32,1.03,1.11,2.16,2.29,3.12,3.58,3.93,5.12,6.29,11.1,7.85,17.13,1.55,6.06,2.34,12.26,2.47,18.46,.07,3.1-.05,6.21-.34,9.3-.29,3.09-.76,6.17-1.59,9.2-.43,1.51-.93,3.01-1.61,4.45-.68,1.44-1.47,2.77-2.3,4.08-1.66,2.61-3.46,5.1-5.34,7.54-3.75,4.87-7.81,9.48-12.13,13.81Z"/></g></g></g></svg>