<?xml version="1.0" encoding="UTF-8"?><svg xmlns="http://www.w3.org/2000/svg" viewBox="0 0 90.59 255.99"><defs><style>.d{stroke-width:2px;}.d,.e{fill:#fff;stroke:#000;stroke-miterlimit:10;}.e{stroke-width:3.69px;}</style></defs><g id="a"/><g id="b"><g id="c"><g><path class="e" d="M15.11,11.93c4.33-5.99,22.15,1.34,22.15,1.34l-10.96,28.98L7.42,55.12S-.09,32.96,15.11,11.93Z"/><path class="d" d="M88.9,52.76c-1.78-18.18-5.94-29.44-12.51-33.91C69.82,14.39,53.88-2.37,39.99,2.75c-13.9,5.13-18.68,29.53-28.89,39.2C2.65,49.95-.09,58.79,1.44,67.64h0c-1.22-4.08,4.13,30.58,19.03,66.95,8.65,21.13,19.61,120.02,24.56,120.4,8.4,.65,13.86-116.24,26.44-143.19,10.68-22.87,15.17-41.86,16.58-48.81,.12-.54,.22-1.08,.31-1.61,.01-.08,.03-.16,.04-.23,.05-.27,.1-.53,.14-.8,.02-.13,.03-.2,.03-.2h0c.42-2.72,.55-5.22,.34-7.39Z"/><path d="M39.78,112.08c2.71,1.06,5.66,1.65,8.47,.89,2.83-.55,5.51-1.69,7.98-3.14,2.48-1.46,4.76-3.23,6.88-5.18,2.13-1.94,4.08-4.06,5.9-6.3,3.67-4.44,6.81-9.31,9.52-14.38,2.68-5.09,5-10.39,6.64-15.86,.82-2.73,1.49-5.51,1.88-8.3,.18-1.39,.33-2.78,.34-4.16v-1.03l-.05-1.01c-.02-.66-.13-1.39-.21-2.11-.66-5.73-1.61-11.43-3.24-16.86-.82-2.71-1.8-5.35-3.1-7.78-1.29-2.41-2.89-4.64-4.95-6.15-.44-.36-1.19-.85-1.77-1.29-.61-.46-1.19-.92-1.77-1.38l-3.41-2.75c-2.26-1.81-4.53-3.56-6.88-5.16-2.34-1.6-4.76-3.07-7.28-4.22-2.52-1.14-5.14-2.01-7.78-2.24-1.31-.11-2.63-.11-3.9,.11-1.27,.22-2.5,.61-3.68,1.16-2.35,1.13-4.41,2.9-6.24,4.96-3.66,4.16-6.37,9.3-9.08,14.42-2.71,5.14-5.28,10.47-8.99,15.29-.94,1.19-1.96,2.35-3.09,3.4l-1.51,1.48c-.5,.5-.95,1.04-1.43,1.56-1.84,2.12-3.42,4.45-4.62,6.97-1.2,2.51-1.98,5.22-2.26,8-.3,2.78-.06,5.61,.55,8.37,.31,1.37,.7,2.76,1.19,4.07,.51,1.3,1.14,2.59,1.84,3.84,1.39,2.52,2.99,4.95,4.66,7.32,1.68,2.37,3.45,4.68,5.29,6.93,1.83,2.27,3.73,4.48,5.71,6.62-4.23-4.02-8.18-8.35-11.78-12.97-1.8-2.31-3.53-4.68-5.08-7.2-.78-1.25-1.5-2.55-2.12-3.94-.59-1.4-1.06-2.8-1.46-4.25-.77-2.9-1.12-5.94-.9-8.98,.21-3.03,.96-6.03,2.17-8.82,1.2-2.8,2.88-5.37,4.8-7.7,.5-.57,.97-1.16,1.49-1.7l1.57-1.62c.98-.97,1.87-2.02,2.7-3.14,1.66-2.25,3.09-4.73,4.44-7.27,1.36-2.54,2.65-5.14,3.96-7.75,1.32-2.61,2.66-5.23,4.17-7.8,1.5-2.57,3.15-5.1,5.16-7.43,1.99-2.33,4.42-4.45,7.34-5.87,1.46-.69,3.03-1.19,4.63-1.48,1.6-.28,3.23-.3,4.82-.17,3.19,.27,6.18,1.26,8.97,2.51,2.79,1.26,5.38,2.82,7.85,4.5,2.46,1.69,4.8,3.52,7.09,5.36l3.39,2.76c.56,.45,1.12,.9,1.68,1.32,.57,.45,1.05,.75,1.75,1.3,2.65,1.99,4.48,4.65,5.92,7.36,1.44,2.73,2.48,5.59,3.3,8.47,1.64,5.77,2.51,11.64,3.1,17.5,.07,.74,.16,1.45,.19,2.25l.05,1.17-.03,1.16c-.04,1.54-.21,3.05-.45,4.54-.49,2.98-1.26,5.87-2.19,8.7-1.86,5.65-4.34,11.04-7.27,16.17-2.96,5.1-6.33,9.98-10.27,14.39-1.96,2.2-4.07,4.28-6.35,6.17-2.27,1.89-4.7,3.6-7.32,4.98-2.61,1.38-5.43,2.42-8.36,2.84-.74,.06-1.46,.2-2.21,.19-.75,0-1.48-.09-2.21-.23-1.45-.29-2.83-.8-4.15-1.41Z"/></g></g></g></svg>