<?xml version="1.0" encoding="UTF-8"?><svg xmlns="http://www.w3.org/2000/svg" viewBox="0 0 115.65 235.85"><defs><style>.d{stroke-width:2px;}.d,.e{fill:#fff;stroke:#000;stroke-miterlimit:10;}.e{stroke-width:3.69px;}</style></defs><g id="a"/><g id="b"><g id="c"><g><path class="d" d="M62.09,27.26c3.37-31.11,18.44,37.8,11.56,82.19-6.88,44.39-26.56,31.34-26.56,31.34l4.07-28.79s8.06-58.21,10.93-84.74Z"/><path class="e" d="M68.47,225.53s-18.7,2.43-21.47,2.89c-2.77,.46-13.16-12-13.16-12l9.93-13.85,24.7,22.96Z"/><path class="d" d="M113.71,181.12s0-.03,0-.05c-2.5-31.52-18.91-45.65-18.91-68.05V39.63c0-11.91-6.61-42-7.8-29.54-4.05,42.41-19.02,97.69-33.37,94.82C39.28,102.03,26.75-1.13,24.31,1.03c-11.85,10.48-1.87,103.88-3.74,121.51S5.08,160.27,2.53,181.4c0,.03,0,.06,0,.09-.6,2.88-1.04,5.97-1.26,9.34-1.31,19.67,15,39.03,23.79,39.03,12.12,0,17.72-8.94,24.38-7.98,6.68,.97,16.99,11.99,29.92,12.19,12.93,.2,35.16-27.41,35.16-43.6,0-3.22-.28-6.35-.81-9.36Z"/><path d="M80.41,149.21c-.77-.07-1.53-.14-2.3-.23l-2.3-.2c-1.53-.13-3.06-.25-4.59-.33-3.06-.17-6.13-.31-9.19-.36-3.07-.08-6.13-.07-9.2-.06-1.54,0-3.07,.03-4.61,.08-1.54,0-3.07,.09-4.61,.13,3.04-.51,6.12-.8,9.19-.98,3.08-.19,6.17-.23,9.25-.17,3.08,.08,6.17,.25,9.23,.6,3.07,.34,6.12,.8,9.12,1.52Z"/><path d="M23.02,153.64c-4.68,2.56-8.91,5.95-12.07,10.18-.83,1.03-1.5,2.16-2.22,3.26-.62,1.16-1.3,2.28-1.81,3.5-1.13,2.37-1.93,4.88-2.61,7.41-.29,1.28-.65,2.54-.85,3.84l-.35,1.94-.24,1.96c-.19,1.3-.27,2.61-.36,3.93-.11,1.32-.15,2.6-.1,3.89,.18,5.16,1.45,10.27,3.56,15,2.1,4.73,4.95,9.15,8.42,12.94,1.75,1.87,3.66,3.59,5.75,4.89,1.04,.64,2.13,1.18,3.19,1.49,.27,.09,.53,.15,.79,.18,.26,.06,.51,.06,.75,.08,.53,.01,1.21-.06,1.81-.08,2.47-.21,4.87-.82,7.19-1.8,2.32-.96,4.53-2.31,6.9-3.65,1.2-.66,2.43-1.35,3.87-1.86,1.41-.5,3.04-.91,4.74-.68,1.64,.22,3.11,.74,4.37,1.36,1.31,.6,2.5,1.28,3.68,1.96,4.64,2.77,9.04,5.6,13.84,7.31,2.38,.87,4.84,1.43,7.3,1.54,.3,.01,.63,.06,.91,.05l.82-.04c.56-.09,1.12-.14,1.69-.32,1.13-.28,2.27-.77,3.38-1.31,4.45-2.29,8.44-5.79,12-9.57,3.55-3.82,6.75-8.01,9.48-12.47,2.7-4.46,4.98-9.26,6.05-14.27,.29-1.25,.41-2.51,.47-3.76-.02-1.3,.03-2.62-.07-3.92-.09-2.62-.5-5.21-.98-7.79-.53-2.57-1.28-5.09-2.23-7.53-1.01-2.42-2.21-4.77-3.67-6.97-1.49-2.17-3.21-4.19-5.14-6.01-1.95-1.79-4.11-3.37-6.42-4.71,2.4,1.18,4.68,2.61,6.79,4.29,2.06,1.74,3.92,3.71,5.57,5.86,1.61,2.18,2.98,4.53,4.15,6.98,1.12,2.48,2.02,5.05,2.72,7.68,.62,2.65,1.13,5.33,1.33,8.05,.16,1.36,.15,2.71,.23,4.08-.01,1.41-.1,2.83-.36,4.2-.97,5.51-3.27,10.55-5.94,15.28-2.71,4.73-5.92,9.16-9.59,13.21-3.69,4.02-7.76,7.79-12.79,10.49-1.28,.64-2.6,1.25-4.06,1.62-.71,.22-1.48,.32-2.24,.44l-1.18,.06c-.39,.01-.72-.03-1.09-.05-2.87-.12-5.69-.75-8.32-1.7-5.3-1.87-9.97-4.86-14.5-7.53-1.13-.65-2.26-1.31-3.37-1.82-1.12-.57-2.22-.91-3.22-1.06-1.95-.25-4.19,.8-6.46,2.07-2.28,1.27-4.66,2.71-7.28,3.78-2.61,1.09-5.44,1.81-8.31,1.99-.74,.02-1.39,.08-2.19,.05-.42-.03-.84-.05-1.23-.15-.4-.07-.79-.16-1.16-.29-1.49-.46-2.8-1.16-4.02-1.93-2.42-1.57-4.47-3.5-6.34-5.56-3.7-4.14-6.59-8.9-8.68-13.99C1.24,204.59-.03,199.12,0,193.58c0-1.38,.1-2.78,.25-4.11,.15-1.35,.28-2.7,.52-4.03l.33-2.01,.44-1.99c.26-1.33,.66-2.63,1.04-3.94,.84-2.58,1.8-5.14,3.1-7.53,.59-1.22,1.35-2.36,2.05-3.52,.8-1.1,1.55-2.23,2.46-3.24,1.75-2.07,3.7-3.96,5.88-5.54,2.18-1.58,4.52-2.92,6.95-4.03Z"/></g></g></g></svg>