<?xml version="1.0" encoding="UTF-8"?><svg xmlns="http://www.w3.org/2000/svg" viewBox="0 0 107.06 329.65"><defs><style>.d{fill:#fff;stroke:#000;stroke-miterlimit:10;stroke-width:2px;}</style></defs><g id="a"/><g id="b"><g id="c"><g><path class="d" d="M27.07,189.5C34.51,151.59,45.12,.15,53.52,1c4.94,.5,18.05,129.68,24.56,158.5,7.47,33.07,22.34,98.79,23.4,103.5h0c.85,1.74,1.67,3.48,2.43,5.24,11.61,26.67-36.77,60.54-55.15,59.57S1.34,296.99,1.34,278.54c0-9.57,2.09-23.03,8.56-34.44,4.41-11.28,13.46-35.64,17.17-54.59Z"/><path d="M64.97,225.03c2.77,1.09,5.53,2.28,8.1,3.84,2.61,1.48,5.02,3.29,7.39,5.14,4.64,3.83,8.77,8.26,12.45,13.03,3.67,4.78,6.8,9.96,9.57,15.31,.7,1.33,1.37,2.69,1.99,4.06,.66,1.32,1.23,2.85,1.71,4.34,.93,3.04,1.05,6.29,.69,9.41-.39,3.12-1.25,6.17-2.51,9-1.26,2.83-2.8,5.52-4.55,8.04-3.52,5.03-7.69,9.52-12.26,13.53-4.54,4.04-9.51,7.57-14.73,10.69-5.26,3.05-10.76,5.77-16.83,7.34-.75,.22-1.53,.36-2.31,.5-.77,.17-1.58,.24-2.38,.32-.79,.12-1.65,.05-2.47,.07-.82-.06-1.63-.13-2.43-.26-3.19-.53-6.16-1.63-8.96-2.96-5.59-2.7-10.58-6.31-15.14-10.33-4.55-4.05-8.67-8.55-12.31-13.43-3.61-4.89-6.77-10.21-8.68-16.13-.23-.74-.42-1.5-.63-2.25-.14-.77-.34-1.53-.44-2.32-.09-.79-.22-1.57-.22-2.37-.01-.4-.04-.8-.03-1.19l.04-1.14c.06-3.04,.4-6.06,.82-9.06,.95-5.98,2.51-11.87,4.87-17.45,2.38-5.56,5.56-10.81,9.66-15.24,1.04-1.09,2.16-2.1,3.24-3.15,1.17-.94,2.37-1.86,3.56-2.77l3.86-2.32,4.07-1.87c-5.41,2.53-10.2,6.25-13.99,10.77-3.81,4.52-6.65,9.77-8.71,15.27-2.09,5.5-3.43,11.27-4.15,17.1-.3,2.92-.57,5.85-.55,8.78v1.1c0,.36,.03,.7,.04,1.04,.01,.69,.15,1.38,.24,2.08,.1,.69,.3,1.38,.44,2.07,.2,.68,.4,1.37,.62,2.04,.93,2.7,2.2,5.32,3.66,7.83,1.45,2.51,3.09,4.94,4.87,7.26,3.56,4.63,7.6,8.92,12.03,12.74,4.43,3.8,9.2,7.25,14.38,9.7,2.58,1.22,5.28,2.17,7.98,2.61,.67,.11,1.35,.16,2.02,.2,.67-.03,1.31,.04,2-.07,.68-.07,1.36-.13,2.05-.28,.69-.12,1.37-.26,2.06-.45,5.52-1.39,10.85-3.96,15.9-6.87,5.04-2.97,9.83-6.39,14.26-10.21,4.45-3.8,8.51-8.06,11.91-12.76,3.31-4.72,6.06-9.96,6.85-15.56,.39-2.78,.36-5.63-.4-8.33-.4-1.34-.84-2.64-1.47-4.01-.59-1.35-1.18-2.71-1.83-4.03-2.54-5.33-5.45-10.5-8.87-15.32-3.38-4.84-7.24-9.37-11.63-13.35-2.24-1.93-4.54-3.82-7.05-5.41-2.44-1.7-5.1-3.04-7.81-4.31Z"/></g></g></g></svg>