<?xml version="1.0" encoding="UTF-8"?><svg xmlns="http://www.w3.org/2000/svg" viewBox="0 0 90.59 255.99"><defs><style>.d{stroke-width:2px;}.d,.e{fill:#fff;stroke:#000;stroke-miterlimit:10;}.e{stroke-width:3.69px;}</style></defs><g id="a"/><g id="b"><g id="c"><g><path class="e" d="M75.47,11.93c-4.33-5.99-22.15,1.34-22.15,1.34l10.96,28.98,18.88,12.87s7.52-22.16-7.69-43.19Z"/><path class="d" d="M1.69,52.76c1.78-18.18,5.94-29.44,12.51-33.91C20.76,14.39,36.7-2.37,50.6,2.75c13.9,5.13,18.68,29.53,28.89,39.2,8.45,8,11.19,16.83,9.66,25.69h0c1.22-4.08-4.13,30.58-19.03,66.95-8.65,21.13-19.61,120.02-24.56,120.4-8.4,.65-13.86-116.24-26.44-143.19C8.45,88.93,3.96,69.94,2.55,62.99c-.12-.54-.22-1.08-.31-1.61-.01-.08-.03-.16-.04-.23-.05-.27-.1-.53-.14-.8-.02-.13-.03-.2-.03-.2h0c-.42-2.72-.55-5.22-.34-7.39Z"/><path d="M50.81,112.08c-1.32,.61-2.7,1.12-4.15,1.41-.72,.14-1.46,.23-2.21,.23-.75,.01-1.47-.13-2.21-.19-2.93-.42-5.75-1.46-8.36-2.84-2.62-1.38-5.05-3.09-7.32-4.98-2.28-1.89-4.38-3.97-6.35-6.17-3.93-4.41-7.3-9.29-10.27-14.39-2.93-5.13-5.41-10.52-7.27-16.17-.93-2.83-1.7-5.72-2.19-8.7-.24-1.49-.41-3-.45-4.54l-.03-1.16,.05-1.17c.02-.8,.12-1.51,.19-2.25,.59-5.86,1.46-11.73,3.1-17.5,.82-2.88,1.86-5.74,3.3-8.47,1.44-2.71,3.28-5.37,5.92-7.36,.7-.55,1.18-.85,1.75-1.3,.56-.42,1.12-.87,1.68-1.32l3.39-2.76c2.28-1.85,4.62-3.67,7.09-5.36,2.47-1.68,5.07-3.24,7.85-4.5,2.78-1.25,5.78-2.25,8.97-2.51,1.59-.13,3.21-.11,4.82,.17,1.6,.28,3.16,.79,4.63,1.48,2.92,1.43,5.34,3.54,7.34,5.87,2,2.34,3.66,4.86,5.16,7.43,1.5,2.57,2.84,5.19,4.17,7.8,1.32,2.61,2.6,5.21,3.96,7.75,1.35,2.54,2.78,5.02,4.44,7.27,.84,1.12,1.73,2.17,2.7,3.14l1.57,1.62c.52,.54,.99,1.14,1.49,1.7,1.92,2.33,3.59,4.9,4.8,7.7,1.21,2.79,1.97,5.79,2.17,8.82,.22,3.03-.14,6.08-.9,8.98-.4,1.45-.87,2.86-1.46,4.25-.62,1.39-1.34,2.69-2.12,3.94-1.55,2.52-3.28,4.89-5.08,7.2-3.6,4.62-7.55,8.95-11.78,12.97,1.98-2.14,3.88-4.35,5.71-6.62,1.84-2.26,3.61-4.56,5.29-6.93,1.67-2.37,3.27-4.8,4.66-7.32,.71-1.25,1.34-2.54,1.84-3.84,.48-1.31,.88-2.7,1.19-4.07,.61-2.76,.85-5.59,.55-8.37-.29-2.78-1.07-5.49-2.26-8-1.2-2.52-2.78-4.85-4.62-6.97-.48-.52-.93-1.06-1.43-1.56l-1.51-1.48c-1.12-1.06-2.15-2.21-3.09-3.4-3.7-4.82-6.27-10.15-8.99-15.29-2.71-5.12-5.42-10.26-9.08-14.42-1.83-2.06-3.9-3.83-6.24-4.96-1.18-.54-2.41-.93-3.68-1.16-1.27-.22-2.59-.23-3.9-.11-2.63,.23-5.26,1.1-7.78,2.24-2.52,1.15-4.94,2.62-7.28,4.22-2.35,1.6-4.62,3.35-6.88,5.16l-3.41,2.75c-.58,.46-1.16,.92-1.77,1.38-.58,.45-1.33,.94-1.77,1.29-2.06,1.51-3.65,3.74-4.95,6.15-1.29,2.42-2.27,5.07-3.1,7.78-1.63,5.43-2.58,11.13-3.24,16.86-.08,.71-.18,1.45-.21,2.11l-.06,1.01v1.03c.02,1.37,.17,2.77,.36,4.16,.39,2.79,1.05,5.56,1.88,8.3,1.64,5.48,3.97,10.77,6.64,15.86,2.71,5.08,5.86,9.94,9.53,14.38,1.81,2.24,3.77,4.36,5.9,6.3,2.12,1.94,4.4,3.72,6.88,5.18,2.47,1.46,5.15,2.59,7.98,3.14,2.81,.75,5.77,.17,8.47-.89Z"/></g></g></g></svg>