<?xml version="1.0" encoding="UTF-8"?><svg xmlns="http://www.w3.org/2000/svg" viewBox="0 0 98.34 315.87"><defs><style>.d{fill:#fff;stroke:#000;stroke-miterlimit:10;stroke-width:2px;}</style></defs><g id="a"/><g id="b"><g id="c"><g><path class="d" d="M94.43,250.4h0c-.02-.06-.03-.12-.05-.17-4.68-16.93-13.04-35.31-18.03-60.72C68.92,151.59,58.31,.15,49.91,1c-4.94,.5-18.05,129.68-24.56,158.5-6.97,30.84-20.37,90.08-23.01,101.75-7.84,24.13,34.75,53.64,51.18,52.78,16.84-.89,43.43-28.23,43.43-45.13,0-5.27-.69-11.83-2.53-18.49h0Z"/><path d="M39.2,219.68c-2.54,1.15-5.03,2.39-7.32,3.96-2.35,1.47-4.5,3.22-6.59,5.02-4.11,3.7-7.7,7.93-10.85,12.45-3.16,4.51-5.87,9.34-8.21,14.32-.61,1.24-1.13,2.51-1.69,3.77-.3,.64-.51,1.25-.72,1.86-.22,.61-.44,1.22-.54,1.87-.59,2.52-.66,5.16-.16,7.74,.95,5.17,3.56,10.01,6.76,14.33,3.23,4.34,7.11,8.21,11.29,11.71,4.21,3.47,8.69,6.63,13.46,9.27,4.74,2.63,9.79,4.89,14.92,5.87,1.28,.26,2.54,.35,3.75,.34,1.23-.07,2.49-.24,3.74-.58,2.5-.64,4.96-1.69,7.32-2.95,4.72-2.54,9.06-5.9,13.07-9.57,4.01-3.68,7.65-7.8,10.78-12.24,1.56-2.22,2.98-4.54,4.18-6.95,1.2-2.4,2.19-4.9,2.75-7.46,.17-.64,.22-1.28,.33-1.92,.06-.65,.1-1.26,.11-1.94,.01-1.36-.03-2.73-.1-4.09-.15-2.73-.47-5.45-.92-8.15-.9-5.4-2.43-10.71-4.71-15.69-2.26-4.98-5.33-9.64-9.3-13.44-3.97-3.8-8.82-6.71-14.1-8.5,2.69,.72,5.32,1.72,7.81,3.01,2.48,1.31,4.82,2.92,6.95,4.76,4.27,3.7,7.69,8.34,10.27,13.38,2.57,5.05,4.33,10.49,5.46,16.03,.57,2.77,.97,5.58,1.2,8.41,.11,1.41,.19,2.83,.21,4.26,0,.71-.03,1.5-.07,2.23-.1,.73-.15,1.49-.32,2.2-1.15,5.81-3.92,10.96-7.09,15.68-3.21,4.71-6.93,9.04-11.06,12.96-4.14,3.9-8.68,7.42-13.75,10.19-2.54,1.37-5.23,2.56-8.12,3.31-1.44,.39-2.95,.62-4.49,.71-1.57,.03-3.1-.08-4.56-.38-5.83-1.16-11.05-3.59-16.02-6.36-4.96-2.8-9.62-6.07-13.95-9.75-4.3-3.71-8.29-7.81-11.65-12.47-1.65-2.34-3.21-4.78-4.41-7.43-1.2-2.64-2.13-5.44-2.58-8.35-.48-2.91-.33-5.96,.42-8.83,.14-.73,.41-1.43,.68-2.12,.26-.7,.52-1.39,.83-2.01,.6-1.27,1.19-2.55,1.86-3.79,2.58-5,5.51-9.84,8.92-14.32,3.44-4.45,7.32-8.58,11.67-12.13,4.36-3.53,9.28-6.38,14.54-8.24Z"/></g></g></g></svg>