<?xml version="1.0" encoding="UTF-8"?><svg xmlns="http://www.w3.org/2000/svg" viewBox="0 0 126.21 317.42"><defs><style>.d{stroke-width:2px;}.d,.e{fill:#fff;stroke:#000;stroke-miterlimit:10;}.e{stroke-width:3.69px;}</style></defs><g id="a"/><g id="b"><g id="c"><g><path class="d" d="M71.39,45.05c4.67-28.67,14,106.67,12.67,140-1.33,33.33-44,9.33-44,9.33,0,0,17.84-66.42,31.33-149.33Z"/><path class="e" d="M93.72,293.94s-40.59,19.68-45.4,18.44c-4.82-1.24-14.67-17.34-14.67-17.34l18.19-12.92,41.89,11.81Z"/><path class="d" d="M123.71,257.05c-.02-.06-.04-.12-.05-.18-.58-2.82-1.38-5.52-2.4-8.08-6.84-22.8-19.21-63.5-19.21-91.07V55.05c0-16.67-7.07-58.75-8.34-41.33-4.33,59.33-20.33,136.67-35.66,132.65C42.72,142.34,29.34-1.98,26.72,1.05c-12.67,14.67-2,145.33-4,170-1.81,22.26-11.82,50.91-19.06,75.52-1.06,2.35-1.8,4.91-2.2,7.7-.01,.04-.02,.08-.03,.12-.11,.38-.14,.74-.12,1.07-.41,4.01-.1,8.47,1.11,13.43,6.01,24.58,16.21,42.19,25.71,42.19,13.1,0,28.26-14.16,35.45-13.12,7.22,1.04,9.26,17.45,23.23,17.67,13.97,.22,38.01-29.62,38.01-47.12,0-3.53-.31-6.96-.9-10.25-.03-.38-.09-.78-.22-1.2Z"/><path d="M40.05,224.02c-6.69,1.46-13.27,3.57-19.3,6.72-3,1.59-5.84,3.47-8.39,5.68-2.5,2.24-4.75,4.77-6.38,7.67-3.43,5.73-4.28,12.64-3.37,19.21,.12,.82,.28,1.64,.41,2.47,.16,.82,.37,1.63,.55,2.44,.4,1.64,.86,3.29,1.32,4.92,.94,3.27,1.99,6.5,3.16,9.68,2.35,6.34,5.16,12.56,8.9,18.05,1.89,2.7,4.05,5.25,6.61,6.95,1.27,.84,2.65,1.4,3.99,1.52,.33,.02,.66,.04,1.07,.01,.39,0,.78-.03,1.17-.08,.39-.03,.78-.08,1.18-.15,.39-.06,.78-.13,1.18-.22,3.14-.67,6.23-1.91,9.25-3.34,3.03-1.44,5.99-3.1,9.02-4.74,3.06-1.61,6.06-3.36,9.78-4.38,.94-.23,1.97-.39,3.11-.33,1.15,.06,2.31,.46,3.24,1.02,1.88,1.14,3.05,2.66,4.16,4.07,2.13,2.87,3.87,5.72,6.09,8.01,2.17,2.31,4.82,3.91,7.81,4.42l1.13,.15,1.15,.06,1.07-.05,1.09-.18c1.47-.32,2.94-.91,4.37-1.62,2.86-1.47,5.53-3.46,8.03-5.64,5.02-4.38,9.39-9.59,13.12-15.18,1.86-2.8,3.55-5.71,4.98-8.73,1.42-3.01,2.64-6.14,3.33-9.34,.36-1.6,.53-3.2,.56-4.81l-.04-2.51c-.01-.84-.1-1.67-.15-2.51-.27-3.34-.81-6.65-1.68-9.89-1.78-6.44-4.94-12.54-9.56-17.39-2.29-2.44-4.97-4.52-7.87-6.21-1.43-.89-2.96-1.59-4.53-2.22-1.57-.63-3.18-1.18-4.81-1.65-3.27-.96-6.62-1.64-9.99-2.2-3.37-.57-6.78-.97-10.2-1.28,6.85,.24,13.73,.87,20.44,2.53,6.72,1.55,13.22,4.81,18.24,9.76,5.02,4.95,8.53,11.29,10.59,17.99,1.02,3.37,1.65,6.83,2.01,10.32,.07,.87,.18,1.75,.21,2.62l.1,2.63c0,1.81-.16,3.65-.51,5.4-1.45,7.04-4.67,13.39-8.43,19.26-3.81,5.86-8.26,11.31-13.51,16.03-2.62,2.36-5.49,4.5-8.72,6.2-1.63,.82-3.36,1.54-5.25,1.96l-1.44,.24-1.5,.08-1.42-.07-1.42-.18c-1.89-.32-3.74-.99-5.41-1.94-1.68-.94-3.13-2.18-4.42-3.5-2.57-2.65-4.43-5.7-6.4-8.31-.98-1.29-2.01-2.51-3.09-3.14-.54-.32-1.04-.49-1.61-.53-.58-.04-1.27,.04-1.98,.22-2.92,.76-5.96,2.43-8.94,4.01-3.01,1.61-6.03,3.3-9.21,4.79-3.17,1.48-6.49,2.83-10.08,3.54-.45,.1-.9,.17-1.35,.23-.45,.07-.91,.13-1.38,.16-.46,.05-.93,.07-1.39,.08-.45,.03-.97,0-1.5-.04-2.08-.22-3.95-1.07-5.52-2.13-3.14-2.16-5.42-5.01-7.42-7.93-3.94-5.91-6.66-12.36-8.93-18.91-1.13-3.28-2.12-6.6-3.01-9.94-.43-1.68-.86-3.34-1.24-5.04-.17-.86-.37-1.72-.51-2.59-.12-.87-.26-1.74-.36-2.62-.38-3.51-.31-7.09,.36-10.57,.31-1.75,.84-3.45,1.45-5.12,.69-1.63,1.42-3.26,2.4-4.74,1.86-3.02,4.34-5.58,7.03-7.8,2.73-2.18,5.72-3.99,8.84-5.48,3.13-1.48,6.37-2.68,9.67-3.65,3.31-.94,6.68-1.65,10.06-2.2Z"/></g></g></g></svg>