<?xml version="1.0" encoding="UTF-8"?><svg xmlns="http://www.w3.org/2000/svg" viewBox="0 0 119.78 202.81"><defs><style>.d,.e,.f{fill:#fff;}.e{stroke-width:2px;}.e,.f{stroke:#000;stroke-miterlimit:10;}.f{stroke-width:3.69px;}</style></defs><g id="a"/><g id="b"><g id="c"><g><path class="f" d="M48.93,11.97c4.39-1.69,22.39-4.92,30.47-2.84,8.08,2.08,15.93,8.54,15.93,8.54l-16.39,5.77-30.01-11.47Z"/><path class="e" d="M17.76,5.66c5.1-.78,15.93-.46,27.36-3.46,11.24-2.95,28.05,12.03,28.05,12.03,0,0,16.62-6.49,24.47-5.79,5.67,.5,16.04,5.83,18.93,10.73,2.47,4.19,2.4,9.82,.08,17.79h0c-.42,1.44-.9,2.94-1.47,4.54-.21,.59-.44,1.22-.67,1.87-8.89,29.74-8.59,73.18-10.98,85.9-3.17,16.82-14.67,66.86-18,66.86s-5.18-51.51-9.97-62.83c-4.79-11.32-5.21-27.75-14.28-28.83-9.08-1.08-17.72,23.27-17.72,37.83s-5.33,60.58-10,59.5c-4.67-1.08-8.11-77.38-11.07-94.64-2.96-17.25-10.6-30.36-16.11-59.97C4.27,37.03,2.17,24.55,1.6,20.68,.33,11.97,10.26,6.82,17.76,5.66Z"/><g><path class="d" d="M52.46,79.29c6.93,.07,11.01,.26,11.01,.26,0,0,4.98,.06,11.17-.21"/><path d="M52.46,79.29c3.7-.31,7.4-.31,11.1-.24,3.69-.06,7.36-.04,11.08,.29-3.68,.47-7.4,.63-11.1,.71-3.69-.1-7.38-.28-11.07-.76Z"/></g><path d="M87.65,78.24c2.44-.44,4.9-.95,7.19-1.85,2.33-.83,4-2.71,5.46-4.67,2.88-3.99,5.05-8.47,7.05-12.99,1.98-4.54,3.77-9.16,5.44-13.83,1.66-4.68,3.22-9.36,3.95-14.12,.33-2.37,.45-4.75,.02-6.98-.22-1.11-.56-2.17-1.05-3.15l-.4-.72-.45-.64c-.14-.22-.35-.42-.52-.63-.17-.21-.36-.41-.58-.61-1.62-1.6-3.62-2.94-5.69-4.12-2.08-1.17-4.27-2.18-6.51-2.91-1.12-.38-2.25-.65-3.34-.83-.27-.03-.54-.08-.81-.09l-.83-.02c-.54-.04-1.14,.04-1.71,.07-2.32,.2-4.71,.7-7.06,1.28-4.71,1.19-9.43,2.73-13.99,4.47l-1,.38-.85-.72c-4.81-4.06-10.24-7.78-15.99-10.15-2.86-1.16-5.89-1.97-8.71-1.74-.34,.05-.7,.05-1.03,.14-.34,.07-.65,.13-1.08,.24-.82,.19-1.63,.41-2.45,.57-1.64,.36-3.28,.66-4.93,.92-3.3,.52-6.61,.84-9.91,1.08-3.27,.26-6.62,.32-9.67,.7-3.01,.44-6.02,1.41-8.67,2.9-1.34,.72-2.54,1.64-3.58,2.66-1.04,1.02-1.89,2.19-2.36,3.49-.49,1.28-.64,2.67-.49,4.07,.21,1.6,.46,3.22,.7,4.83,.5,3.23,1.02,6.45,1.56,9.68,1.11,6.44,2.19,12.89,3.61,19.24,.73,3.15,1.54,6.32,2.62,9.34,1.09,3.02,2.57,5.9,4.59,8.38,2.01,2.48,4.62,4.48,7.61,5.7,2.98,1.25,6.25,1.76,9.52,1.83-3.26,.13-6.6-.14-9.74-1.26-3.14-1.1-5.98-3.06-8.21-5.56-2.25-2.5-3.94-5.45-5.22-8.52-1.28-3.09-2.24-6.24-3.09-9.44-1.65-6.39-3.01-12.8-4.27-19.24-.63-3.22-1.23-6.44-1.81-9.68-.29-1.62-.58-3.23-.84-4.87-.26-1.85-.11-3.8,.54-5.59,.63-1.8,1.74-3.35,3.01-4.64,1.27-1.29,2.7-2.39,4.23-3.25,3.04-1.76,6.35-2.88,9.8-3.45,3.44-.47,6.66-.58,9.9-.85,3.23-.25,6.44-.58,9.61-1.1,1.59-.25,3.16-.55,4.72-.9,.78-.16,1.55-.37,2.33-.56,.35-.09,.85-.2,1.31-.3,.47-.11,.93-.13,1.4-.2,3.75-.31,7.22,.69,10.4,1.94,3.19,1.3,6.14,2.98,8.95,4.81,2.82,1.86,5.46,3.83,8.05,6.08l-1.85-.33c4.76-1.78,9.51-3.34,14.47-4.52,2.48-.57,4.99-1.07,7.63-1.26,.67-.02,1.32-.1,2.02-.05l1.04,.04c.35,.03,.69,.09,1.04,.13,1.36,.24,2.65,.58,3.88,1.02,2.48,.85,4.81,1.97,7.05,3.28,2.23,1.31,4.37,2.81,6.26,4.76,.24,.23,.47,.49,.69,.76,.22,.28,.45,.52,.65,.82l.59,.9,.48,.93c.59,1.26,.98,2.6,1.21,3.94,.44,2.69,.22,5.34-.2,7.88-.88,5.09-2.71,9.83-4.52,14.47-1.84,4.65-3.79,9.26-6.04,13.74-2.24,4.47-4.65,8.9-7.8,12.85l-1.25,1.43c-.46,.44-.91,.89-1.39,1.31-.53,.37-1.01,.79-1.57,1.11-.57,.31-1.16,.54-1.76,.74-2.41,.77-4.89,1.11-7.36,1.4Z"/></g></g></g></svg>