<?xml version="1.0" encoding="UTF-8"?><svg xmlns="http://www.w3.org/2000/svg" viewBox="0 0 101.59 156.43"><defs><style>.d{stroke-width:2px;}.d,.e{fill:#fff;stroke:#000;stroke-miterlimit:10;}.e{stroke-width:3.69px;}</style></defs><g id="a"/><g id="b"><g id="c"><g><path class="e" d="M44.76,9.11s13.08-7.39,20.93-5.85c7.85,1.54,18.31,8.31,18.31,8.31l-27.24,8.77-12-11.23Z"/><path class="d" d="M7.83,9.89c4.78-2.94,19.08,1.83,22.47,0,3.39-1.83,13.95-8.69,19.08-8.02,4.76,.62,14.16,10.47,16.31,10.16,2.15-.31,12.4-8.73,17.24-8.77,5.21-.05,17.72,8.7,17.24,14.7-.4,4.97-.88,9.79-1.35,14.8,.88-.1,1.36-.16,1.36-.16-2.47,36.83-9.6,60.69-11.95,71.23-2.88,12.98-13.35,51.6-16.39,51.6s2.04-26.68-7.46-42.5c-5.03-8.37-6.36-27.41-14.63-28.24-8.26-.83-16.38,19.1-16.38,30.33s-3.76,37.18-8.01,36.35c-4.25-.83-8.23-51.29-10.93-64.6-2.69-13.32-5.16-22.8-10.18-45.64h0C-.98,29.91,1.16,14,7.83,9.89Z"/><path d="M86.63,70.2c2.45-.21,4.52-1.78,5.75-3.8,1.31-1.99,2.13-4.25,2.75-6.55,1.22-4.63,1.66-9.41,1.76-14.23,.19-4.85,.52-9.7,.87-14.53l.56-7.24,.27-3.61,.12-1.81c.06-.69,.05-.97-.03-1.44-.19-.89-.66-1.83-1.29-2.72-.62-.89-1.37-1.73-2.18-2.53-1.63-1.58-3.49-3-5.45-4.19-1.94-1.17-4.11-2.22-6.06-2.56-.48-.09-.86-.05-1.28,.01-.2,0-.47,.12-.7,.17-.23,.05-.48,.14-.74,.24-1,.35-2.03,.89-3.05,1.43-2.03,1.13-4.04,2.41-6.07,3.72-1.02,.66-2.03,1.32-3.12,1.98-.55,.33-1.12,.65-1.83,.97-.21,.09-.51,.17-.77,.24-.14,.09-.96,.08-1.14,0-.64-.14-.97-.32-1.33-.5-1.31-.71-2.25-1.45-3.26-2.2l-2.89-2.23c-1.9-1.46-3.8-2.92-5.73-4.03-.94-.55-1.96-1.02-2.66-1.12-.78-.1-1.85,.08-2.88,.34-2.11,.58-4.27,1.53-6.37,2.58-2.11,1.06-4.18,2.23-6.27,3.44l-1.59,.91-.83,.46c-.37,.17-.9,.36-1.32,.47l-1.15,.16c-.35,.02-.69,.02-1.04,.02-.69,0-1.31-.06-1.96-.1-2.52-.24-4.9-.64-7.27-.95-2.36-.31-4.72-.57-6.92-.46-1.05,.1-2.14,.25-2.81,.64-.81,.44-1.56,1.18-2.21,2.01-1.31,1.68-2.18,3.82-2.81,6.01-1.21,4.44-1.35,9.23-.66,13.84,.34,2.31,.95,4.58,1.8,6.75,.44,1.08,.94,2.13,1.52,3.14,.58,.97,1.26,2.01,1.91,3.06,2.55,4.2,4.57,8.64,6.62,13.01,1.04,2.18,2.09,4.35,3.42,6.34,1.31,1.98,2.97,3.82,5.2,4.83-2.3-.83-4.17-2.58-5.66-4.51-1.49-1.95-2.7-4.08-3.88-6.2-2.33-4.26-4.54-8.55-7.24-12.5-.68-.98-1.36-1.94-2.07-3.01-.67-1.07-1.26-2.18-1.78-3.33-1.02-2.3-1.76-4.71-2.23-7.17-.94-4.92-.92-10.02,.26-14.98,.63-2.47,1.52-4.93,3.12-7.15,.81-1.1,1.79-2.13,3.09-2.88,.35-.18,.72-.35,1.08-.51,.36-.13,.7-.2,1.05-.3,.36-.11,.7-.16,1.03-.2l1.01-.13c2.64-.17,5.12,.08,7.56,.35,2.43,.27,4.83,.63,7.14,.8,.56,.03,1.14,.07,1.67,.06l.78-.02c.22-.04,.43-.07,.65-.09,.15-.06,.2-.07,.39-.13l.76-.43,1.56-.91c2.09-1.23,4.23-2.45,6.44-3.58,2.22-1.12,4.5-2.17,7.06-2.89,1.3-.32,2.65-.63,4.29-.46,.87,.12,1.57,.37,2.22,.65,.65,.28,1.25,.59,1.82,.92,2.26,1.33,4.19,2.85,6.12,4.35l2.84,2.23c.93,.7,1.91,1.44,2.73,1.89,.18,.1,.4,.18,.36,.16,0,0,0,0-.01,0-.02,0-.08-.01-.12-.01-.04,0-.08,0-.12,.02,0,0,0-.01,0-.01,.03-.03,.02,0,.09-.03,.39-.17,.88-.44,1.37-.73,.99-.58,2.01-1.25,3.02-1.89,2.05-1.31,4.12-2.63,6.35-3.8,1.13-.57,2.26-1.15,3.55-1.58,.31-.12,.63-.23,.99-.3,.36-.08,.67-.2,1.07-.23,.39-.03,.79-.1,1.18-.09,.41,0,.78,.06,1.15,.11,1.43,.27,2.67,.74,3.85,1.28,1.18,.55,2.3,1.17,3.37,1.85,2.14,1.36,4.15,2.92,5.94,4.76,.89,.93,1.73,1.92,2.47,3.04,.73,1.11,1.37,2.37,1.64,3.87,.14,.73,.08,1.66,.01,2.18l-.18,1.81-.38,3.62-.8,7.22c-.56,4.81-1.07,9.61-1.47,14.42-.37,4.84-1.04,9.75-2.59,14.42-.79,2.32-1.78,4.61-3.28,6.58-1.43,2-3.75,3.47-6.2,3.47Z"/><path d="M40.21,68.36c2.39-.92,4.79-1.8,7.21-2.64,2.42-.85,4.85-1.64,7.4-2.19,.64-.12,1.29-.23,1.96-.27,.66-.06,1.39,0,2.02,.11,1.29,.24,2.54,.58,3.76,.99,2.45,.79,4.84,1.69,7.22,2.64-1.25-.27-2.49-.61-3.73-.92-1.23-.34-2.46-.68-3.7-.98-1.24-.29-2.47-.62-3.7-.79-1.21-.22-2.38-.05-3.63,.21-2.46,.5-4.9,1.27-7.37,1.94l-3.7,1.02c-1.24,.31-2.48,.63-3.74,.89Z"/></g></g></g></svg>