<?xml version="1.0" encoding="UTF-8"?><svg xmlns="http://www.w3.org/2000/svg" viewBox="0 0 88.86 262.13"><defs><style>.d{fill:#fff;stroke:#000;stroke-miterlimit:10;stroke-width:2px;}</style></defs><g id="a"/><g id="b"><g id="c"><g><path class="d" d="M6.87,17.94C13.03,8.4,24.11,3.78,45.04,1.93c12.28-1.08,29.55,4.92,35.71,13.54,5.63,7.88,7.65,44.53,6.08,58.31h0c-.15,1.3-.32,2.41-.54,3.25-.97,3.88-4.37,12.43-9.02,21.38-4.52,11.8-9.2,24.28-10.4,28.49-2.5,8.74-8.33,52.9-13.67,71.64-3.8,13.36-22.73,59.36-29.33,62.52-5.33,2.55,3.75-67.64,4.33-83.22,1-26.84-7.92-54.38-9.38-65.77-.68-5.33-3.87-15.23-7.26-24.67-4.35-7.72-7.66-15.68-9-22.98-.04-.08-.05-.16-.04-.24C.58,53.29,.44,27.91,6.87,17.94Z"/><path d="M28.76,111.12c-2.28-2.39-4.49-4.85-6.6-7.4-2.07-2.58-4.1-5.2-5.99-7.92-1.89-2.72-3.71-5.5-5.38-8.37-1.69-2.86-3.25-5.8-4.63-8.84-1.41-3.02-2.59-6.16-3.54-9.39-.51-1.6-.86-3.26-1.22-4.91-.31-1.66-.54-3.32-.73-4.99-.39-3.33-.56-6.66-.63-9.99-.08-3.33-.02-6.67,.19-10.01,.19-3.34,.54-6.68,1.13-10.01,.61-3.32,1.39-6.65,2.87-9.87,3.08-6.47,8.88-11.16,15.2-13.85,3.16-1.38,6.44-2.34,9.72-3.1,3.29-.77,6.61-1.31,9.93-1.73,1.66-.23,3.32-.39,4.98-.56,1.66-.16,3.46-.25,5.17-.19,3.45,.1,6.85,.6,10.17,1.38,3.32,.8,6.56,1.89,9.68,3.29,3.12,1.41,6.14,3.11,8.87,5.33,.68,.56,1.36,1.12,1.97,1.78,.31,.32,.63,.63,.94,.96l.86,1.06c.29,.35,.57,.7,.82,1.14,.28,.42,.49,.84,.69,1.26,.22,.42,.39,.83,.55,1.25,.17,.42,.33,.83,.46,1.24,1.13,3.31,1.77,6.61,2.32,9.92,1.07,6.62,1.63,13.25,1.99,19.88,.35,6.64,.45,13.28,.12,19.95-.1,1.67-.21,3.34-.4,5.02-.1,.84-.22,1.69-.37,2.54-.16,.87-.38,1.74-.64,2.55-1.03,3.25-2.31,6.31-3.66,9.36-2.73,6.07-5.79,11.97-9.24,17.66-1.74,2.83-3.58,5.6-5.57,8.27-1.99,2.67-4.13,5.24-6.55,7.55-1.19,1.18-2.51,2.22-3.87,3.19-1.4,.92-2.91,1.72-4.54,2.18-1.63,.48-3.41,.43-4.99-.1-1.6-.5-3.07-1.27-4.48-2.13,1.45,.78,2.97,1.47,4.55,1.86,1.58,.42,3.24,.37,4.76-.17,1.53-.51,2.94-1.33,4.25-2.28,1.28-1,2.52-2.06,3.63-3.26,2.27-2.35,4.26-4.96,6.1-7.66,1.84-2.71,3.54-5.52,5.14-8.38,3.21-5.72,6.07-11.64,8.57-17.7,1.23-3.03,2.44-6.09,3.33-9.16,.86-2.93,.94-6.24,1.09-9.48,.17-6.52-.06-13.1-.47-19.64-.44-6.54-1.09-13.08-2.21-19.49-.59-3.18-1.22-6.39-2.24-9.33-.12-.37-.26-.73-.41-1.07-.14-.36-.28-.7-.45-1.02-.16-.33-.32-.65-.5-.91-.15-.28-.39-.57-.63-.86l-.7-.86c-.26-.27-.54-.53-.8-.8-.51-.55-1.12-1.04-1.71-1.53-2.4-1.94-5.18-3.51-8.08-4.8-2.91-1.29-5.95-2.29-9.05-3.03-3.1-.75-6.27-1.23-9.41-1.33-1.59-.06-3.1,0-4.72,.16-1.63,.16-3.25,.31-4.86,.52-3.23,.39-6.44,.9-9.58,1.62-3.14,.71-6.23,1.61-9.14,2.83-2.91,1.22-5.64,2.8-7.98,4.83-.29,.26-.59,.5-.87,.77l-.81,.83c-.57,.53-1.02,1.16-1.53,1.74-.49,.6-.91,1.26-1.37,1.88-.36,.66-.74,1.3-1.09,1.98-1.34,2.77-2.12,5.92-2.76,9.07-.63,3.16-1.05,6.39-1.3,9.64-.27,3.25-.4,6.51-.39,9.78,0,3.27,.1,6.54,.37,9.78,.42,6.49,2.22,12.76,4.74,18.8,5.03,12.09,12.43,23.19,20.95,33.25Z"/></g></g></g></svg>