<?xml version="1.0" encoding="UTF-8"?><svg xmlns="http://www.w3.org/2000/svg" viewBox="0 0 101.59 156.43"><defs><style>.d{stroke-width:2px;}.d,.e{fill:#fff;stroke:#000;stroke-miterlimit:10;}.e{stroke-width:3.69px;}</style></defs><g id="a"/><g id="b"><g id="c"><path class="e" d="M56.83,9.11S43.75,1.72,35.9,3.26c-7.85,1.54-18.31,8.31-18.31,8.31l27.24,8.77,12-11.23Z"/><path class="d" d="M93.77,9.89c-4.78-2.94-19.08,1.83-22.47,0-3.39-1.83-13.95-8.69-19.08-8.02-4.76,.62-14.16,10.47-16.31,10.16-2.15-.31-12.4-8.73-17.24-8.77C13.45,3.21,.95,11.96,1.43,17.95c.4,4.97,.88,9.79,1.35,14.8-.88-.1-1.36-.16-1.36-.16,2.47,36.83,9.6,60.69,11.95,71.23,2.88,12.98,13.35,51.6,16.39,51.6s-2.04-26.68,7.46-42.5c5.03-8.37,6.36-27.41,14.63-28.24,8.26-.83,16.38,19.1,16.38,30.33s3.76,37.18,8.01,36.35c4.25-.83,8.23-51.29,10.93-64.6,2.69-13.32,5.16-22.8,10.18-45.64h0c5.25-11.22,3.11-27.12-3.56-31.23Z"/><path d="M14.97,70.2c-2.45,0-4.77-1.48-6.2-3.47-1.5-1.97-2.49-4.26-3.28-6.58-1.55-4.66-2.22-9.58-2.59-14.42-.4-4.81-.92-9.61-1.47-14.42l-.8-7.22-.38-3.62-.18-1.81c-.07-.51-.12-1.45,.01-2.18,.27-1.5,.92-2.76,1.64-3.87,.73-1.12,1.57-2.11,2.47-3.04,1.79-1.84,3.8-3.4,5.94-4.76,1.08-.68,2.19-1.3,3.37-1.85,1.18-.54,2.42-1.01,3.85-1.28,.37-.05,.74-.11,1.15-.11,.4-.01,.79,.05,1.18,.09,.41,.03,.71,.15,1.07,.23,.36,.08,.68,.19,.99,.3,1.29,.43,2.42,1.01,3.55,1.58,2.23,1.17,4.3,2.5,6.35,3.8,1.02,.64,2.04,1.31,3.02,1.89,.49,.29,.98,.56,1.37,.73,.07,.03,.06,0,.09,.03,0,0,.02,.01,0,.01-.04-.01-.08-.02-.12-.02-.04,0-.09,0-.12,.01,0,0-.02,0-.02,0-.05,.02,.18-.06,.36-.16,.82-.44,1.81-1.18,2.73-1.89l2.84-2.23c1.93-1.5,3.87-3.02,6.12-4.35,.57-.33,1.16-.64,1.82-.92,.65-.27,1.35-.53,2.22-.65,1.64-.17,2.99,.14,4.3,.46,2.55,.72,4.84,1.77,7.06,2.89,2.21,1.13,4.35,2.35,6.44,3.58l1.56,.91,.76,.43c.18,.06,.23,.07,.39,.13,.22,.02,.44,.05,.65,.09l.78,.02c.52,.02,1.11-.03,1.67-.06,2.31-.18,4.71-.53,7.14-.8,2.44-.27,4.92-.52,7.56-.35l1.01,.13c.33,.04,.67,.09,1.03,.2,.35,.1,.7,.17,1.05,.3,.36,.16,.72,.33,1.08,.51,1.29,.76,2.28,1.79,3.09,2.88,1.6,2.21,2.49,4.68,3.12,7.15,1.18,4.96,1.19,10.06,.26,14.98-.47,2.46-1.21,4.87-2.23,7.17-.52,1.14-1.11,2.26-1.78,3.33-.71,1.08-1.39,2.04-2.07,3.01-2.7,3.95-4.9,8.24-7.24,12.5-1.18,2.12-2.39,4.25-3.88,6.2-1.49,1.92-3.36,3.68-5.66,4.51,2.23-1.01,3.89-2.85,5.2-4.83,1.33-1.99,2.39-4.16,3.42-6.34,2.05-4.37,4.07-8.81,6.62-13.01,.65-1.04,1.33-2.09,1.91-3.06,.58-1.01,1.08-2.06,1.52-3.14,.85-2.17,1.46-4.44,1.8-6.75,.69-4.61,.55-9.41-.66-13.84-.62-2.19-1.5-4.33-2.81-6.01-.65-.83-1.4-1.57-2.21-2.01-.67-.39-1.76-.54-2.81-.64-2.2-.11-4.56,.16-6.92,.46-2.37,.31-4.76,.71-7.27,.95-.64,.04-1.27,.1-1.96,.1-.35,0-.68,0-1.04-.02l-1.15-.16c-.42-.11-.95-.3-1.32-.47l-.83-.46-1.59-.91c-2.09-1.21-4.16-2.38-6.27-3.44-2.1-1.05-4.26-2-6.37-2.58-1.03-.26-2.1-.44-2.88-.34-.7,.1-1.73,.57-2.66,1.12-1.93,1.11-3.83,2.57-5.73,4.03l-2.89,2.23c-1.01,.75-1.95,1.49-3.26,2.2-.36,.17-.68,.36-1.33,.5-.18,.08-1,.08-1.14,0-.26-.07-.57-.15-.77-.24-.72-.32-1.28-.65-1.83-.97-1.09-.65-2.1-1.32-3.12-1.98-2.03-1.31-4.04-2.6-6.07-3.72-1.01-.54-2.05-1.08-3.05-1.43-.25-.1-.5-.19-.74-.24-.23-.05-.5-.16-.7-.17-.43-.06-.8-.1-1.28-.01-1.96,.33-4.12,1.39-6.06,2.56-1.97,1.19-3.82,2.61-5.45,4.19-.81,.79-1.56,1.64-2.18,2.53-.63,.88-1.1,1.83-1.29,2.72-.08,.47-.09,.75-.03,1.44l.12,1.81,.27,3.61,.56,7.24c.35,4.83,.68,9.68,.87,14.53,.11,4.82,.55,9.6,1.76,14.23,.62,2.3,1.45,4.57,2.75,6.55,1.23,2.01,3.3,3.59,5.75,3.8Z"/><path d="M61.38,68.36c-1.26-.26-2.49-.58-3.74-.89l-3.7-1.02c-2.46-.67-4.9-1.44-7.37-1.94-1.25-.25-2.42-.42-3.63-.21-1.23,.17-2.46,.5-3.7,.79-1.23,.31-2.47,.65-3.7,.98-1.24,.31-2.48,.65-3.73,.92,2.38-.95,4.77-1.85,7.22-2.64,1.22-.4,2.47-.75,3.76-.99,.63-.12,1.36-.18,2.02-.11,.67,.05,1.32,.15,1.96,.27,2.54,.55,4.98,1.34,7.4,2.19,2.42,.85,4.81,1.72,7.21,2.64Z"/></g></g></svg>