<?xml version="1.0" encoding="UTF-8"?><svg xmlns="http://www.w3.org/2000/svg" viewBox="0 0 126.21 317.42"><defs><style>.d{stroke-width:2px;}.d,.e{fill:#fff;stroke:#000;stroke-miterlimit:10;}.e{stroke-width:3.69px;}</style></defs><g id="a"/><g id="b"><g id="c"><g><path class="d" d="M54.82,45.05c-4.67-28.67-14,106.67-12.67,140,1.33,33.33,44,9.33,44,9.33,0,0-17.84-66.42-31.33-149.33Z"/><path class="e" d="M32.49,293.94s40.59,19.68,45.4,18.44c4.82-1.24,14.67-17.34,14.67-17.34l-18.19-12.92-41.89,11.81Z"/><path class="d" d="M2.5,257.05c.02-.06,.04-.12,.05-.18,.58-2.82,1.38-5.52,2.39-8.08,6.84-22.8,19.21-63.5,19.21-91.07V55.05c0-16.67,7.07-58.75,8.34-41.33,4.33,59.33,20.33,136.67,35.66,132.65C83.49,142.34,96.87-1.98,99.49,1.05c12.67,14.67,2,145.33,4,170,1.81,22.26,11.82,50.91,19.06,75.52,1.06,2.35,1.8,4.91,2.2,7.7l.03,.12c.11,.38,.14,.74,.12,1.07,.41,4.01,.1,8.47-1.11,13.43-6.01,24.58-16.21,42.19-25.71,42.19-13.1,0-28.26-14.16-35.45-13.12-7.22,1.04-9.26,17.45-23.23,17.67-13.97,.22-38.01-29.62-38.01-47.12,0-3.53,.31-6.96,.9-10.25,.03-.38,.09-.78,.22-1.2Z"/><path d="M86.16,224.02c3.39,.55,6.75,1.26,10.06,2.2,3.3,.97,6.55,2.17,9.67,3.65,3.12,1.5,6.11,3.3,8.84,5.48,2.69,2.22,5.17,4.78,7.03,7.8,.98,1.48,1.71,3.1,2.4,4.74,.61,1.67,1.15,3.37,1.45,5.12,.67,3.49,.74,7.07,.36,10.57-.1,.88-.24,1.74-.36,2.62-.14,.87-.34,1.72-.51,2.59-.38,1.7-.8,3.36-1.24,5.04-.89,3.34-1.88,6.66-3.01,9.94-2.27,6.55-5,13-8.93,18.91-2,2.92-4.28,5.76-7.42,7.93-1.57,1.06-3.44,1.91-5.52,2.13-.53,.04-1.05,.07-1.5,.04-.47,0-.93-.03-1.39-.08-.46-.03-.92-.09-1.38-.16-.46-.06-.91-.14-1.35-.23-3.59-.71-6.91-2.06-10.08-3.54-3.17-1.49-6.2-3.17-9.21-4.79-2.99-1.58-6.02-3.25-8.94-4.01-.72-.18-1.41-.26-1.98-.22-.57,.04-1.07,.21-1.61,.53-1.08,.63-2.12,1.85-3.09,3.14-1.97,2.62-3.83,5.67-6.4,8.31-1.28,1.32-2.74,2.56-4.42,3.5-1.67,.95-3.52,1.62-5.41,1.94l-1.42,.18-1.42,.07-1.5-.08-1.44-.24c-1.89-.42-3.61-1.13-5.25-1.96-3.24-1.69-6.1-3.84-8.72-6.2-5.25-4.72-9.7-10.17-13.51-16.03-3.77-5.87-6.99-12.22-8.43-19.26-.35-1.75-.52-3.59-.51-5.4l.1-2.63c.03-.88,.14-1.75,.21-2.62,.36-3.49,.99-6.96,2.01-10.32,2.06-6.71,5.57-13.05,10.6-17.99,5.02-4.94,11.52-8.21,18.24-9.76,6.72-1.66,13.59-2.29,20.44-2.53-3.42,.31-6.82,.72-10.2,1.28-3.37,.56-6.73,1.24-9.99,2.2-1.64,.47-3.25,1.01-4.81,1.65-1.57,.63-3.1,1.33-4.53,2.22-2.9,1.69-5.58,3.77-7.87,6.21-4.62,4.86-7.78,10.95-9.56,17.39-.86,3.23-1.41,6.55-1.68,9.89-.05,.84-.14,1.67-.15,2.51l-.04,2.51c.03,1.62,.2,3.21,.56,4.81,.69,3.2,1.91,6.32,3.33,9.34,1.43,3.02,3.13,5.93,4.98,8.73,3.73,5.58,8.1,10.79,13.12,15.18,2.5,2.18,5.18,4.17,8.03,5.64,1.43,.71,2.9,1.3,4.37,1.62l1.09,.18,1.07,.05,1.15-.06,1.13-.15c2.99-.51,5.64-2.11,7.81-4.42,2.22-2.29,3.95-5.14,6.09-8.01,1.11-1.41,2.28-2.92,4.16-4.07,.93-.56,2.09-.96,3.24-1.02,1.13-.07,2.16,.09,3.11,.33,3.73,1.02,6.73,2.77,9.78,4.38,3.03,1.64,5.99,3.3,9.02,4.74,3.02,1.43,6.11,2.67,9.25,3.34,.39,.09,.78,.16,1.18,.22,.39,.07,.78,.12,1.18,.15,.39,.05,.78,.07,1.17,.08,.41,.03,.74,0,1.07-.01,1.34-.13,2.72-.68,3.99-1.52,2.56-1.7,4.72-4.25,6.61-6.95,3.74-5.49,6.54-11.71,8.9-18.05,1.17-3.18,2.21-6.41,3.16-9.68,.46-1.63,.92-3.28,1.32-4.92,.18-.82,.39-1.63,.55-2.44,.14-.82,.3-1.64,.41-2.47,.92-6.57,.06-13.47-3.37-19.21-1.63-2.9-3.88-5.43-6.38-7.67-2.54-2.21-5.38-4.08-8.39-5.68-6.03-3.15-12.61-5.25-19.3-6.72Z"/></g></g></g></svg>