<?xml version="1.0" encoding="UTF-8"?><svg xmlns="http://www.w3.org/2000/svg" viewBox="0 0 132.47 404.27"><defs><style>.d{fill:#fff;stroke:#000;stroke-miterlimit:10;stroke-width:2px;}</style></defs><g id="a"/><g id="b"><g id="c"><g><path class="d" d="M116.82,261.93c-11.88-31.55-20.97-91.25-22.27-112.25C93.26,128.68,111.26-.59,100.89,1.01c-8.25,1.28-53.33,178.33-56.67,193.67-3.33,15.33-27.93,78.16-27.94,78.17-12.39,23.79-14.68,53.76-14.68,67.92,0,0-.77,36.01,3.39,44.32,4.16,8.31,10.77,14.31,44.94,16.62,34.17,2.31,42.69-1.61,45.86-2.31,3.63-.8,31.86-6.46,33.7-38.78,1.27-22.2,6.77-70.03-12.67-98.7h0Z"/><path d="M51.98,241.21c-8.9,2.87-16.97,8.03-23.27,14.85-6.3,6.82-11.06,14.93-14.6,23.48-3.56,8.56-6.1,17.53-7.84,26.64-1.73,9.12-2.75,18.38-3.09,27.64-.2,9.26-.14,18.64,.24,27.9,.21,4.64,.51,9.28,1.09,13.83,.15,1.13,.29,2.28,.52,3.38,.11,.55,.19,1.12,.32,1.66l.41,1.59c.11,.56,.33,.99,.51,1.47l.27,.7,.39,.73c.25,.5,.53,.97,.82,1.42,.27,.47,.58,.91,.91,1.33,1.27,1.71,2.86,3.12,4.66,4.29,1.8,1.19,3.87,2.03,5.95,2.84,4.24,1.49,8.75,2.42,13.3,3.11,4.56,.69,9.16,1.19,13.79,1.54,2.31,.19,4.63,.35,6.95,.47,2.32,.15,4.64,.24,6.96,.33,4.64,.16,9.28,.26,13.9,.13,4.61-.13,9.23-.41,13.71-1.15,2.26-.37,4.39-.85,6.65-1.51l.94-.23,.84-.19c.55-.13,1.1-.26,1.64-.41,1.09-.29,2.16-.62,3.23-.99,4.26-1.46,8.29-3.56,11.87-6.23,3.57-2.68,6.69-5.97,9.01-9.78,1.16-1.9,2.2-3.89,2.98-5.99,.81-2.09,1.46-4.25,1.9-6.46,.5-2.2,.74-4.46,.93-6.72l.5-7c.36-4.66,.71-9.31,.98-13.96,.54-9.3,.75-18.61,.3-27.89-.24-4.64-.61-9.27-1.24-13.86-.64-4.59-1.5-9.15-2.63-13.65-2.34-8.93-5.8-17.72-11.42-25.11-2.79-3.68-6.01-7.08-9.75-9.86-3.71-2.8-7.83-5.05-12.16-6.82,4.39,1.59,8.62,3.69,12.49,6.37,3.86,2.69,7.23,6.05,10.19,9.71,5.95,7.36,9.75,16.22,12.4,25.24,1.26,4.55,2.2,9.17,2.94,13.82,.73,4.65,1.18,9.34,1.52,14.03,.63,9.38,.58,18.79,.21,28.16-.19,4.68-.45,9.36-.73,14.03l-.42,6.99c-.18,2.4-.41,4.8-.92,7.17-.92,4.74-2.64,9.38-5.18,13.56-2.51,4.2-5.9,7.85-9.77,10.81-3.88,2.96-8.25,5.21-12.82,6.81-1.14,.4-2.3,.76-3.47,1.07-.58,.16-1.17,.3-1.76,.44l-.87,.19-.76,.19c-2.22,.66-4.66,1.23-7,1.61-4.74,.8-9.48,1.09-14.2,1.24-4.72,.15-9.43,.07-14.13-.09-2.35-.1-4.7-.19-7.04-.35-2.34-.13-4.69-.3-7.03-.5-4.69-.37-9.38-.89-14.06-1.62-4.68-.73-9.36-1.7-13.95-3.32-2.27-.88-4.56-1.82-6.67-3.22-2.11-1.37-4.04-3.13-5.54-5.19-.38-.51-.74-1.03-1.06-1.57-.34-.53-.65-1.07-.92-1.62l-.43-.82-.37-.93c-.23-.62-.51-1.25-.62-1.85l-.45-1.81c-.13-.6-.21-1.19-.32-1.79-.23-1.19-.37-2.37-.51-3.55-.56-4.72-.81-9.42-.98-14.12-.33-9.41-.23-18.74,.16-28.16,.52-9.4,1.72-18.76,3.64-27.97,1.93-9.21,4.65-18.28,8.46-26.9,3.86-8.59,8.94-16.71,15.55-23.44,3.29-3.37,7.03-6.3,11.07-8.7,4.05-2.38,8.4-4.21,12.9-5.48Z"/></g></g></g></svg>