<?xml version="1.0" encoding="UTF-8"?><svg xmlns="http://www.w3.org/2000/svg" viewBox="0 0 116.74 276.05"><defs><style>.d{stroke-width:2px;}.d,.e{fill:#fff;stroke:#000;stroke-miterlimit:10;}.e{stroke-width:3.69px;}</style></defs><g id="a"/><g id="b"><g id="c"><g><path class="d" d="M53.16,44.13c4.79-13.34,18.67,96.67,21.33,99.33s-28.47,34.04-28.24,24.67c1.07-43.83-7.3-84.47,6.9-124Z"/><path class="e" d="M87.85,245.86s-13.5,29.23-24.35,28c-10.84-1.22-37.62-13.98-37.62-13.98l12-25.08,49.96,11.06Z"/><path class="d" d="M115.54,226.75c-.01-.12-.03-.24-.04-.37-.15-2.25-.44-4.44-.86-6.57-4.49-27.86-19.26-57.27-19.26-82.44V48.03c0-14.5-6.61-51.13-7.8-35.97-4.05,51.63-19.02,118.93-33.37,115.43C39.86,124,27.33-1.59,24.89,1.04c-11.85,12.76-1.87,126.47-3.74,147.93-1.7,19.5-11.92,43.99-17.64,68.37-.64,2.25-1.16,4.66-1.56,7.24,0,.04-.02,.09-.03,.13,0,.04,0,.08-.02,.12-.27,1.84-.48,3.77-.61,5.79-1.32,19.86,15.14,39.41,24.02,39.41,12.24,0,19.68-14.2,26.4-13.23,6.75,.97,15.37,17.28,28.43,17.48,13.05,.2,35.5-27.67,35.5-44.02,0-1.11-.04-2.21-.1-3.3,0-.07,0-.14,0-.22Z"/><path d="M77.62,188.06c-2.8-.16-5.6-.33-8.39-.43-2.79-.09-5.59-.18-8.38-.19-2.79-.04-5.59-.02-8.39,0-1.4,0-2.8,.03-4.2,.08-1.4,0-2.8,.08-4.2,.1,2.77-.49,5.57-.76,8.37-.95,2.8-.2,5.62-.25,8.43-.23,2.81,.04,5.62,.16,8.42,.43,2.8,.26,5.59,.62,8.34,1.19Z"/><path d="M25.88,191.89c-5.05,2.33-9.68,5.53-13.29,9.68-1.85,2.03-3.31,4.37-4.62,6.75l-.91,1.83c-.3,.61-.53,1.26-.8,1.88-.56,1.25-.93,2.57-1.36,3.86-1.6,5.21-2.28,10.73-2.46,16.14-.06,5.37,1.19,10.72,3.25,15.69,1.03,2.49,2.3,4.88,3.74,7.16,1.43,2.28,3.04,4.45,4.84,6.42,.9,.99,1.84,1.93,2.83,2.8,.99,.88,2.03,1.68,3.11,2.36,1.08,.68,2.21,1.25,3.32,1.57,.28,.09,.55,.16,.82,.19,.27,.07,.53,.06,.79,.08,.56,0,1.22-.03,1.82-.11,2.46-.32,4.84-1.28,7.07-2.62,2.24-1.34,4.34-3.03,6.48-4.8,1.07-.88,2.15-1.78,3.31-2.66,1.15-.88,2.4-1.73,3.89-2.41,.76-.32,1.6-.6,2.52-.72,.93-.11,1.94,0,2.81,.27,1.73,.55,3,1.46,4.19,2.36,2.33,1.84,4.28,3.84,6.3,5.72,2,1.88,4.01,3.69,6.17,5.22,2.15,1.53,4.44,2.78,6.86,3.43,1.2,.33,2.44,.51,3.66,.53,1.12,0,2.32-.26,3.5-.63,2.37-.81,4.68-2.15,6.83-3.72,2.16-1.57,4.19-3.36,6.12-5.27,3.83-3.84,7.27-8.12,10.24-12.69,2.94-4.58,5.44-9.5,6.82-14.67,.35-1.29,.57-2.6,.72-3.91,.12-1.28,.07-2.67,.06-4.03-.12-2.72-.33-5.45-.87-8.13-.97-5.36-2.89-10.59-5.89-15.19-1.52-2.28-3.27-4.42-5.28-6.31-2.02-1.88-4.26-3.53-6.66-4.93,2.49,1.23,4.86,2.74,7.03,4.51,2.15,1.8,4.04,3.91,5.72,6.17,3.32,4.56,5.58,9.87,6.86,15.38,.68,2.75,.98,5.58,1.22,8.4,.05,1.42,.16,2.81,.09,4.3-.11,1.46-.3,2.9-.63,4.31-1.29,5.63-3.82,10.8-6.73,15.64-2.95,4.84-6.41,9.36-10.38,13.44-1.99,2.04-4.11,3.96-6.42,5.7-2.31,1.74-4.82,3.28-7.7,4.32-1.45,.49-2.99,.87-4.66,.86-1.56-.02-3.09-.24-4.57-.64-2.97-.79-5.63-2.25-8.01-3.93-2.39-1.68-4.53-3.59-6.59-5.5-2.05-1.9-4.02-3.87-6.06-5.47-1.01-.79-2.06-1.48-3-1.77-.47-.14-.85-.19-1.31-.14-.46,.06-.96,.21-1.48,.42-2.11,.95-4.23,2.79-6.37,4.52-2.16,1.76-4.4,3.57-6.94,5.07-2.52,1.5-5.4,2.69-8.48,3.02-.78,.09-1.51,.12-2.34,.1-.44-.03-.88-.05-1.28-.15-.42-.07-.82-.17-1.2-.3-1.55-.48-2.9-1.21-4.16-2.03-1.26-.82-2.41-1.74-3.49-2.72-1.09-.98-2.1-2.02-3.05-3.1-3.82-4.33-6.75-9.33-8.84-14.66C.99,243.46-.24,237.73,.04,231.96c.4-5.67,1.28-11.27,3.16-16.63,.52-1.32,.97-2.66,1.61-3.93,.31-.64,.57-1.29,.92-1.91l1.04-1.85c1.48-2.4,3.11-4.74,5.11-6.73,1.97-2.01,4.13-3.83,6.51-5.32,2.38-1.47,4.9-2.69,7.5-3.69Z"/></g></g></g></svg>