<?xml version="1.0" encoding="UTF-8"?><svg xmlns="http://www.w3.org/2000/svg" viewBox="0 0 76.56 316.12"><defs><style>.d{fill:#fff;stroke:#000;stroke-miterlimit:10;stroke-width:2px;}</style></defs><g id="a"/><g id="b"><g id="c"><path class="d" d="M74.58,47.58C71.81,27.27,60.95,2.8,53.56,1.87c-7.39-.92-26.08,13.39-39.93,28.16C6.66,37.48,3.07,49.37,1.87,60.88l-.47,.12s-3.43,34.12,9.74,75.93c6.05,19.21,19,66.85,20,77.86s4.5,94.95,12,100.27c3.66,2.59,13-79.38,17-97.23,4-17.85-2.59-60.33,1.5-77.04,2.77-11.32,6.68-36.7,9.47-55.43,1.62-7.8,2.82-15.56,3.41-22.39h0c.53-6.08,.59-11.42,.05-15.39Z"/><path d="M23.56,115.13c-4.32-4.34-8.39-8.95-12.13-13.81-1.88-2.43-3.69-4.92-5.34-7.54-.83-1.31-1.62-2.64-2.3-4.08-.68-1.44-1.18-2.94-1.61-4.45-.82-3.03-1.29-6.11-1.59-9.2-.29-3.09-.4-6.2-.34-9.3,.13-6.2,.92-12.41,2.47-18.46,1.57-6.03,3.93-12.01,7.85-17.13,.96-1.29,2.09-2.48,3.12-3.58,1.06-1.12,2.14-2.23,3.23-3.32,2.18-2.19,4.42-4.32,6.71-6.39,4.59-4.14,9.41-8.04,14.59-11.53,2.6-1.73,5.29-3.36,8.25-4.69,1.49-.65,3.04-1.23,4.82-1.52,.88-.14,1.84-.21,2.92,0,1.11,.22,1.98,.71,2.75,1.22,1.51,1.06,2.63,2.3,3.66,3.58,1.01,1.28,1.92,2.61,2.74,3.96,1.64,2.71,3.05,5.51,4.31,8.36,2.52,5.71,4.53,11.59,6.09,17.61,.77,3.01,1.43,6.05,1.94,9.12,.53,3.03,.87,6.28,.84,9.4,0,6.26-.7,12.41-1.62,18.51-1.9,12.18-4.8,24.17-8.75,35.83-2.06,5.79-4.32,11.55-7.44,16.9-1.59,2.63-3.33,5.3-5.99,7.08-1.34,.89-3.01,1.11-4.54,.93-1.55-.17-3.01-.69-4.4-1.32,1.43,.55,2.92,.96,4.43,1.04,1.5,.08,3.04-.23,4.21-1.12,2.4-1.77,4.01-4.45,5.44-7.09,2.82-5.37,4.8-11.17,6.57-16.98,1.76-5.83,3.26-11.74,4.51-17.7,1.26-5.96,2.32-11.95,3.11-17.98,.76-6.02,1.31-12.09,1.24-18.07-.03-3-.36-5.86-.93-8.85-.53-2.96-1.21-5.9-2.01-8.81-1.58-5.82-3.54-11.55-6-17.03-1.22-2.74-2.59-5.41-4.13-7.92-.77-1.26-1.6-2.46-2.49-3.57-.89-1.11-1.87-2.13-2.87-2.83-.49-.34-1-.6-1.4-.67-.42-.09-1.02-.09-1.64,.02-1.25,.19-2.6,.66-3.91,1.23-2.64,1.16-5.22,2.7-7.71,4.35-5,3.31-9.71,7.14-14.27,11.13-2.28,2-4.5,4.06-6.67,6.18-1.09,1.06-2.15,2.13-3.21,3.21-1.07,1.11-2.07,2.14-2.95,3.29-3.6,4.58-5.99,10.16-7.63,15.9-1.64,5.77-2.5,11.77-2.83,17.79-.16,3.01-.15,6.04,.03,9.05,.18,3.01,.56,6.01,1.23,8.92,.34,1.45,.75,2.88,1.32,4.24,.57,1.36,1.28,2.7,2.04,4.01,1.5,2.63,3.18,5.18,4.94,7.67,1.75,2.5,3.59,4.94,5.49,7.33,1.88,2.41,3.84,4.76,5.86,7.06Z"/></g></g></svg>