<?xml version="1.0" encoding="UTF-8"?><svg xmlns="http://www.w3.org/2000/svg" viewBox="0 0 119.78 202.81"><defs><style>.d,.e,.f{fill:#fff;}.e{stroke-width:2px;}.e,.f{stroke:#000;stroke-miterlimit:10;}.f{stroke-width:3.69px;}</style></defs><g id="a"/><g id="b"><g id="c"><path class="f" d="M70.85,11.97c-4.39-1.69-22.39-4.92-30.47-2.84-8.08,2.08-15.93,8.54-15.93,8.54l16.39,5.77,30.01-11.47Z"/><path class="e" d="M102.01,5.66c-5.1-.78-15.93-.46-27.36-3.46-11.24-2.95-28.05,12.03-28.05,12.03,0,0-16.62-6.49-24.47-5.79-5.67,.5-16.04,5.83-18.93,10.73-2.47,4.19-2.4,9.82-.08,17.79h0c.42,1.44,.9,2.94,1.47,4.54,.21,.59,.43,1.22,.67,1.87,8.89,29.74,8.59,73.18,10.98,85.9,3.17,16.82,14.67,66.86,18,66.86s5.18-51.51,9.97-62.83c4.79-11.32,5.21-27.75,14.28-28.83,9.08-1.08,17.72,23.27,17.72,37.83s5.33,60.58,10,59.5c4.67-1.08,8.11-77.38,11.07-94.64,2.96-17.25,10.6-30.36,16.11-59.97,2.11-10.16,4.21-22.64,4.78-26.51,1.27-8.71-8.66-13.86-16.16-15.01Z"/><g><path class="d" d="M67.32,79.29c-6.93,.07-11.01,.26-11.01,.26,0,0-4.98,.06-11.17-.21"/><path d="M67.32,79.29c-3.69,.48-7.38,.66-11.07,.76-3.71-.08-7.42-.24-11.1-.71,3.71-.33,7.39-.35,11.08-.29,3.7-.06,7.4-.07,11.1,.24Z"/></g><path d="M32.13,78.24c-2.47-.29-4.95-.63-7.36-1.4-.6-.2-1.2-.43-1.76-.74-.56-.32-1.05-.74-1.57-1.11-.47-.43-.92-.87-1.39-1.31l-1.25-1.43c-3.15-3.95-5.56-8.38-7.8-12.85-2.25-4.48-4.2-9.09-6.04-13.74-1.81-4.64-3.64-9.38-4.52-14.47-.42-2.54-.64-5.19-.2-7.88,.23-1.34,.62-2.68,1.21-3.94l.48-.93,.59-.9c.2-.31,.43-.55,.65-.82,.22-.27,.45-.53,.69-.76,1.89-1.95,4.03-3.45,6.26-4.76,2.24-1.3,4.57-2.42,7.05-3.28,1.23-.44,2.52-.78,3.88-1.02,.35-.05,.69-.11,1.04-.13l1.04-.04c.7-.05,1.35,.03,2.02,.05,2.64,.19,5.15,.69,7.63,1.26,4.96,1.18,9.71,2.74,14.47,4.52l-1.85,.33c2.59-2.25,5.23-4.22,8.05-6.08,2.81-1.83,5.76-3.51,8.95-4.81,3.18-1.25,6.65-2.25,10.4-1.94,.47,.07,.93,.08,1.4,.2,.46,.1,.96,.2,1.31,.3,.78,.19,1.54,.4,2.33,.56,1.56,.35,3.13,.65,4.72,.9,3.17,.52,6.38,.85,9.61,1.1,3.25,.27,6.46,.39,9.9,.85,3.45,.56,6.76,1.69,9.8,3.45,1.53,.86,2.95,1.96,4.23,3.25,1.27,1.29,2.38,2.84,3.01,4.64,.64,1.79,.8,3.74,.54,5.59-.26,1.64-.55,3.25-.84,4.87-.58,3.23-1.19,6.45-1.81,9.68-1.26,6.44-2.62,12.86-4.27,19.24-.84,3.2-1.81,6.35-3.09,9.44-1.28,3.07-2.97,6.03-5.22,8.52-2.23,2.5-5.08,4.46-8.21,5.56-3.14,1.11-6.48,1.38-9.74,1.26,3.27-.08,6.54-.59,9.52-1.83,2.99-1.22,5.6-3.22,7.61-5.7,2.02-2.48,3.5-5.36,4.59-8.38,1.08-3.02,1.89-6.19,2.62-9.34,1.42-6.35,2.51-12.8,3.61-19.24,.54-3.22,1.07-6.45,1.56-9.68,.24-1.61,.49-3.23,.7-4.83,.15-1.4,0-2.79-.49-4.07-.46-1.3-1.32-2.47-2.36-3.49-1.04-1.02-2.24-1.93-3.58-2.66-2.65-1.48-5.66-2.46-8.67-2.9-3.05-.38-6.4-.44-9.67-.7-3.29-.24-6.61-.56-9.91-1.08-1.65-.25-3.3-.56-4.93-.92-.82-.16-1.63-.38-2.45-.57-.44-.11-.74-.16-1.08-.24-.33-.09-.69-.09-1.03-.14-2.82-.23-5.85,.58-8.71,1.74-5.75,2.37-11.18,6.09-15.99,10.15l-.85,.72-1-.38c-4.55-1.74-9.28-3.28-13.99-4.47-2.36-.58-4.74-1.08-7.06-1.28-.57-.02-1.17-.11-1.71-.07l-.83,.02c-.27,.02-.54,.06-.81,.09-1.09,.17-2.22,.44-3.34,.83-2.24,.73-4.44,1.74-6.51,2.91-2.07,1.18-4.07,2.52-5.69,4.12-.21,.19-.4,.4-.58,.61-.17,.21-.38,.41-.52,.63l-.45,.64-.4,.72c-.49,.98-.83,2.04-1.05,3.15-.43,2.22-.31,4.61,.02,6.98,.73,4.76,2.29,9.45,3.95,14.12,1.67,4.67,3.45,9.29,5.44,13.83,2,4.52,4.17,9,7.05,12.99,1.46,1.96,3.13,3.84,5.46,4.67,2.29,.9,4.75,1.41,7.19,1.85Z"/></g></g></svg>