<?xml version="1.0" encoding="UTF-8"?><svg xmlns="http://www.w3.org/2000/svg" viewBox="0 0 116.74 276.05"><defs><style>.d{stroke-width:2px;}.d,.e{fill:#fff;stroke:#000;stroke-miterlimit:10;}.e{stroke-width:3.69px;}</style></defs><g id="a"/><g id="b"><g id="c"><g><path class="d" d="M63.59,44.13c-4.79-13.34-18.67,96.67-21.33,99.33-2.67,2.67,28.47,34.04,28.24,24.67-1.07-43.83,7.3-84.47-6.9-124Z"/><path class="e" d="M28.89,245.86s13.5,29.23,24.35,28c10.84-1.22,37.62-13.98,37.62-13.98l-12-25.08-49.96,11.06Z"/><path class="d" d="M1.21,226.75c.01-.12,.03-.24,.04-.37,.15-2.25,.44-4.44,.86-6.57,4.49-27.86,19.26-57.27,19.26-82.44V48.03c0-14.5,6.61-51.13,7.8-35.97,4.05,51.63,19.02,118.93,33.37,115.43C76.89,124,89.41-1.59,91.86,1.04c11.85,12.76,1.87,126.47,3.74,147.93,1.7,19.5,11.92,43.99,17.64,68.37,.64,2.25,1.16,4.66,1.56,7.24,0,.04,.02,.09,.03,.13,0,.04,0,.08,.02,.12,.27,1.84,.48,3.77,.61,5.79,1.32,19.86-15.14,39.41-24.02,39.41-12.24,0-19.68-14.2-26.4-13.23-6.75,.97-15.37,17.28-28.43,17.48-13.05,.2-35.5-27.67-35.5-44.02,0-1.11,.04-2.21,.1-3.3,0-.07,0-.14,0-.22Z"/><path d="M39.13,188.06c2.75-.57,5.54-.93,8.34-1.19,2.8-.27,5.61-.39,8.42-.43,2.81-.02,5.62,.03,8.43,.23,2.8,.19,5.6,.47,8.37,.95-1.41-.02-2.8-.1-4.21-.1-1.4-.05-2.8-.07-4.2-.08-2.8-.02-5.59-.04-8.39,0-2.79,.02-5.59,.1-8.38,.19-2.79,.1-5.59,.26-8.39,.43Z"/><path d="M90.86,191.89c2.59,1,5.11,2.22,7.5,3.69,2.37,1.49,4.53,3.32,6.51,5.32,2,2,3.63,4.33,5.11,6.73l1.04,1.85c.35,.62,.61,1.27,.92,1.91,.64,1.27,1.09,2.61,1.61,3.93,1.88,5.36,2.76,10.96,3.16,16.63,.28,5.76-.96,11.5-3,16.83-2.09,5.33-5.02,10.33-8.84,14.66-.95,1.09-1.96,2.13-3.05,3.1-1.08,.98-2.23,1.91-3.49,2.72-1.26,.82-2.61,1.55-4.16,2.03-.38,.13-.78,.23-1.2,.3-.4,.1-.84,.12-1.28,.15-.83,.02-1.56-.01-2.34-.1-3.08-.33-5.96-1.52-8.48-3.02-2.54-1.5-4.79-3.31-6.94-5.07-2.14-1.73-4.27-3.57-6.37-4.52-.52-.21-1.02-.36-1.48-.42-.46-.04-.84,0-1.31,.14-.94,.29-1.99,.98-3,1.77-2.04,1.6-4.01,3.57-6.06,5.47-2.05,1.91-4.19,3.82-6.59,5.5-2.38,1.67-5.04,3.14-8.01,3.93-1.48,.39-3.01,.62-4.57,.64-1.67,0-3.21-.38-4.66-.86-2.88-1.04-5.39-2.59-7.7-4.32-2.31-1.74-4.43-3.66-6.42-5.7-3.98-4.08-7.43-8.6-10.38-13.44-2.92-4.85-5.44-10.01-6.73-15.64-.33-1.4-.52-2.85-.63-4.31-.08-1.49,.03-2.88,.08-4.3,.23-2.82,.54-5.64,1.22-8.4,1.28-5.51,3.54-10.82,6.86-15.38,1.68-2.26,3.57-4.36,5.72-6.17,2.17-1.77,4.54-3.28,7.03-4.51-2.41,1.4-4.65,3.04-6.66,4.93-2.02,1.89-3.76,4.03-5.28,6.31-3.01,4.59-4.92,9.83-5.89,15.19-.54,2.68-.75,5.41-.87,8.13,0,1.36-.06,2.75,.06,4.03,.14,1.31,.37,2.62,.72,3.91,1.38,5.18,3.88,10.1,6.82,14.67,2.97,4.57,6.4,8.85,10.24,12.69,1.92,1.91,3.96,3.7,6.12,5.27,2.15,1.57,4.46,2.91,6.83,3.72,1.18,.37,2.38,.64,3.5,.63,1.22-.02,2.46-.21,3.66-.53,2.42-.65,4.71-1.9,6.86-3.43,2.16-1.53,4.17-3.33,6.17-5.22,2.02-1.88,3.96-3.87,6.3-5.72,1.19-.9,2.46-1.81,4.19-2.36,.86-.27,1.88-.38,2.81-.27,.92,.12,1.76,.39,2.52,.72,1.49,.68,2.74,1.54,3.89,2.41,1.16,.88,2.24,1.78,3.31,2.66,2.13,1.76,4.23,3.45,6.48,4.8,2.24,1.34,4.62,2.3,7.07,2.62,.6,.08,1.26,.12,1.82,.11,.26-.02,.51-.01,.79-.08,.27-.04,.54-.1,.82-.19,1.11-.32,2.25-.9,3.32-1.57,1.08-.68,2.12-1.48,3.11-2.36,1-.86,1.94-1.81,2.83-2.8,1.8-1.97,3.41-4.14,4.84-6.42,1.44-2.28,2.71-4.67,3.74-7.16,2.07-4.97,3.31-10.32,3.25-15.69-.18-5.41-.86-10.93-2.46-16.14-.43-1.29-.8-2.61-1.36-3.86-.27-.63-.49-1.28-.8-1.88l-.91-1.83c-1.31-2.38-2.78-4.72-4.62-6.75-3.6-4.14-8.24-7.35-13.29-9.68Z"/></g></g></g></svg>