<?xml version="1.0" encoding="UTF-8"?><svg xmlns="http://www.w3.org/2000/svg" viewBox="0 0 106.05 433.67"><defs><style>.d{fill:#fff;stroke:#000;stroke-miterlimit:10;stroke-width:2px;}</style></defs><g id="a"/><g id="b"><g id="c"><g><path class="d" d="M102.6,324.94c-.59-2.38-15.82-63.21-20.4-87.86-4.09-22-3.09-84.5-7.09-108S61.76-2.33,58.11,1.08c-7.5,7-11,117.5-12,132s-14.5,77-20,102.5-16.91,97.5-16.91,97.5h0c-3.23,6.72-5.68,14.04-6.95,21.91-6.93,42.67,31.49,76.84,37.46,76.84,8.62,0,54.87-37.09,59.64-55.25,3.47-13.19,8.62-31.54,3.25-51.64h0Z"/><path d="M43.92,294.82c-1.46,1.02-2.98,1.94-4.38,3.04l-2.13,1.6-2.05,1.69c-1.4,1.09-2.68,2.32-4.01,3.49-1.3,1.2-2.55,2.46-3.8,3.71-4.9,5.1-9.25,10.72-12.87,16.76-3.64,6.02-6.58,12.46-8.6,19.16-1.99,6.71-3.26,13.66-3.18,20.61-.04,1.74,.11,3.47,.21,5.21,.06,.87,.19,1.73,.29,2.59,.09,.86,.2,1.73,.37,2.58,.52,3.44,1.39,6.82,2.41,10.14,2.1,6.64,5.1,12.99,8.78,18.92,3.66,5.94,7.96,11.51,12.82,16.5,2.43,2.49,5,4.85,7.75,6.85,.34,.26,.69,.49,1.03,.72,.35,.24,.69,.46,1.04,.66,.69,.44,1.41,.74,1.95,.93,.07,0,.12,0,.18,.03,.13-.03,.26-.05,.39-.06,.11,0,.3-.06,.47-.11l.52-.14c.73-.26,1.48-.57,2.23-.95,3.03-1.47,6-3.39,8.89-5.35,2.89-1.98,5.72-4.08,8.51-6.24,5.57-4.32,10.91-8.96,16.05-13.78,5.11-4.84,10.06-9.9,14.34-15.4,2.12-2.75,4.12-5.63,5.57-8.66,.73-1.54,1.19-2.99,1.66-4.78l1.38-5.13c1.8-6.83,3.18-13.74,3.79-20.73,.57-6.99,.24-14.05-1.16-20.92-1.41-6.88-4-13.5-7.31-19.75-1.68-3.1-3.55-6.12-5.77-8.87-2.2-2.76-4.74-5.29-7.71-7.25,3.07,1.8,5.77,4.21,8.14,6.89,2.36,2.69,4.37,5.68,6.19,8.75,3.59,6.17,6.51,12.82,8.23,19.83,1.66,7.02,2.19,14.29,1.81,21.49-.42,7.2-1.74,14.31-3.41,21.26l-1.28,5.2c-.39,1.66-.96,3.63-1.74,5.32-1.56,3.42-3.64,6.43-5.81,9.33-4.38,5.78-9.36,10.98-14.5,15.97-5.18,4.96-10.6,9.66-16.24,14.09-2.82,2.21-5.7,4.36-8.66,6.41-2.98,2.03-5.99,4.02-9.36,5.67-.84,.41-1.73,.78-2.68,1.12l-.77,.21c-.26,.07-.49,.15-.83,.18-.31,.04-.62,.07-.93,.1-.37-.03-.76-.09-1.13-.16-.55-.18-1.13-.38-1.55-.61l-.69-.34-.63-.37c-.43-.24-.83-.5-1.21-.77-.39-.26-.79-.52-1.15-.81-3-2.2-5.66-4.68-8.19-7.29-5.03-5.23-9.49-10.98-13.21-17.19-3.74-6.2-6.78-12.84-8.88-19.79-2.09-6.94-3.23-14.22-3.06-21.49,.29-14.59,5.35-28.68,13.13-40.71,7.88-11.99,18.42-22.22,30.77-29.32Z"/></g></g></g></svg>