<?xml version="1.0" encoding="UTF-8"?><svg xmlns="http://www.w3.org/2000/svg" viewBox="0 0 78.31 278.11"><defs><style>.d{fill:#fff;stroke:#000;stroke-miterlimit:10;stroke-width:2px;}</style></defs><g id="a"/><g id="b"><g id="c"><g><path class="d" d="M72.07,60.99c.81-2.66,1.47-5.44,1.93-8.33,.4-2.49,.74-4.94,1.04-7.35,.31-1.4,.45-2.67,.44-3.83,1.93-18.24,1.06-33.05-1.64-37.68-3.29-5.64-27.24,2.31-34.17,2.31S10.14,2.22,6.44,4.17C2.75,6.11,1.36,25.51,1.36,37.05c0,.85,.05,1.76,.14,2.7l-.14-.02s12.41,78.6,15.75,90.25c3.33,11.65,48.42,146.14,56.67,147.11,10.38,1.22-5.27-96.96-6.33-112.93-2.97-44.65,1.08-81.55,4.63-103.17Z"/><path d="M44.14,97.56c4.55-3.2,8.73-6.9,12.41-11.03,3.69-4.11,6.89-8.65,9.42-13.52,2.57-4.85,4.53-10,5.76-15.32,1.19-5.29,1.78-10.85,2.33-16.33,.51-5.5,.81-11.02,.86-16.52-.01-5.48-.19-11.04-1.26-16.24-.3-1.25-.64-2.56-1.14-3.53l-.18-.38c-.05-.05-.08-.09-.11-.14-.11-.09-.19-.2-.38-.29-.32-.21-.85-.36-1.4-.48-2.31-.41-5.07-.17-7.73,.17-5.39,.72-10.77,2-16.28,3.09-1.38,.27-2.77,.52-4.23,.7-.74,.08-1.46,.18-2.28,.18-.78,.01-1.5-.03-2.22-.07-2.86-.19-5.62-.51-8.4-.82-5.53-.62-11.05-1.32-16.49-1.62-1.35-.07-2.7-.1-3.96-.03-.6,.04-1.25,.14-1.53,.25l-.08,.03s0,.02-.02,.02c-.01-.03-.08,.09-.12,.11-.11,.13-.25,.32-.38,.55-.53,.95-.94,2.23-1.27,3.5-.33,1.28-.6,2.61-.83,3.95-.89,5.38-1.36,10.9-1.66,16.41-.07,1.38-.13,2.76-.17,4.14-.04,1.38-.08,2.78-.02,4.08,.12,2.66,.56,5.36,1.1,8.05,1.11,5.38,2.67,10.71,4.24,16.04,.77,2.67,1.57,5.34,2.29,8.04,.36,1.35,.69,2.72,.98,4.1,.25,1.44,.37,2.77,.66,4.12,.56,2.69,1.36,5.35,2.29,7.96,.93,2.61,2.02,5.17,3.34,7.62-2.95-4.73-5.13-9.94-6.58-15.36-.37-1.35-.58-2.8-.87-4.09-.34-1.33-.73-2.65-1.15-3.96-.84-2.63-1.77-5.26-2.67-7.89-1.79-5.27-3.53-10.58-4.88-16.06-.67-2.74-1.19-5.54-1.4-8.43C-.01,37.08,0,35.7,0,34.3c0-1.4,.03-2.8,.06-4.2,.15-5.6,.49-11.2,1.35-16.82,.22-1.41,.48-2.81,.82-4.23,.36-1.42,.74-2.83,1.53-4.34,.2-.38,.46-.77,.8-1.16,.21-.2,.34-.39,.64-.59,.13-.1,.27-.19,.41-.27,.13-.07,.26-.12,.4-.18,1.03-.39,1.77-.44,2.56-.53,1.52-.12,2.95-.09,4.38-.05,5.68,.24,11.21,.95,16.74,1.53,2.76,.29,5.52,.6,8.21,.76,.67,.04,1.34,.07,1.95,.05,.57,0,1.23-.09,1.87-.16,1.31-.17,2.65-.43,4-.69,5.41-1.04,10.87-2.31,16.52-3.04,1.42-.18,2.85-.32,4.32-.37,1.47-.04,2.97-.03,4.57,.28,.81,.18,1.64,.39,2.51,.92,.42,.22,.86,.6,1.23,1.01,.18,.22,.36,.46,.51,.7l.27,.56c.77,1.52,1.05,2.95,1.39,4.4,1.08,5.74,1.15,11.37,1.08,17-.11,5.62-.56,11.22-1.23,16.78-.33,2.78-.72,5.56-1.16,8.32-.24,1.38-.41,2.76-.73,4.15-.3,1.39-.54,2.79-.96,4.14-1.47,5.48-3.68,10.74-6.52,15.61-2.85,4.87-6.34,9.33-10.28,13.31-1.95,2.02-4.06,3.86-6.23,5.62-2.2,1.72-4.51,3.3-6.89,4.74Z"/></g></g></g></svg>